<?xml version="1.0" encoding="UTF-8" standalone="no"?>
<!DOCTYPE svg PUBLIC "-//W3C//DTD SVG 1.1//EN"
 "http://www.w3.org/Graphics/SVG/1.1/DTD/svg11.dtd">
<!-- Generated by graphviz version 2.43.0 (0)
 -->
<!-- Title: 1 Pages: 1 -->
<svg width="586pt" height="644pt"
 viewBox="0.00 0.00 585.69 643.93" xmlns="http://www.w3.org/2000/svg" xmlns:xlink="http://www.w3.org/1999/xlink">
<g id="graph0" class="graph" transform="scale(1 1) rotate(0) translate(4 639.93)">
<title>1</title>
<polygon fill="white" stroke="transparent" points="-4,4 -4,-639.93 581.69,-639.93 581.69,4 -4,4"/>
<!-- n16 -->
<g id="node1" class="node">
<title>n16</title>
<ellipse fill="none" stroke="black" cx="28.6" cy="-208.8" rx="28.7" ry="28.7"/>
<text text-anchor="middle" x="28.6" y="-205.1" font-family="Times,serif" font-size="14.00">n16</text>
</g>
<!-- n17 -->
<g id="node2" class="node">
<title>n17</title>
<ellipse fill="none" stroke="black" cx="175.53" cy="-28.6" rx="28.7" ry="28.7"/>
<text text-anchor="middle" x="175.53" y="-24.9" font-family="Times,serif" font-size="14.00">n17</text>
</g>
<!-- n16&#45;&#45;n17 -->
<g id="edge1" class="edge">
<title>n16&#45;&#45;n17</title>
<path fill="none" stroke="black" d="M46.91,-186.34C75.22,-151.62 129.28,-85.32 157.45,-50.77"/>
</g>
<!-- n15 -->
<g id="node3" class="node">
<title>n15</title>
<ellipse fill="none" stroke="black" cx="97.35" cy="-133.46" rx="28.7" ry="28.7"/>
<text text-anchor="middle" x="97.35" y="-129.76" font-family="Times,serif" font-size="14.00">n15</text>
</g>
<!-- n15&#45;&#45;n16 -->
<g id="edge3" class="edge">
<title>n15&#45;&#45;n16</title>
<path fill="none" stroke="black" d="M77.83,-154.85C68.46,-165.12 57.27,-177.38 47.93,-187.62"/>
</g>
<!-- n15&#45;&#45;n17 -->
<g id="edge2" class="edge">
<title>n15&#45;&#45;n17</title>
<path fill="none" stroke="black" d="M114.51,-110.45C127.55,-92.96 145.39,-69.03 158.42,-51.56"/>
</g>
<!-- n14 -->
<g id="node4" class="node">
<title>n14</title>
<ellipse fill="none" stroke="black" cx="29.66" cy="-323.85" rx="28.7" ry="28.7"/>
<text text-anchor="middle" x="29.66" y="-320.15" font-family="Times,serif" font-size="14.00">n14</text>
</g>
<!-- n14&#45;&#45;n16 -->
<g id="edge5" class="edge">
<title>n14&#45;&#45;n16</title>
<path fill="none" stroke="black" d="M29.39,-295.12C29.23,-277.55 29.03,-255.15 28.86,-237.57"/>
</g>
<!-- n14&#45;&#45;n17 -->
<g id="edge4" class="edge">
<title>n14&#45;&#45;n17</title>
<path fill="none" stroke="black" d="M42.35,-298.17C69.94,-242.33 135.11,-110.41 162.77,-54.43"/>
</g>
<!-- n14&#45;&#45;n15 -->
<g id="edge6" class="edge">
<title>n14&#45;&#45;n15</title>
<path fill="none" stroke="black" d="M39.36,-296.58C52.23,-260.38 74.81,-196.86 87.67,-160.69"/>
</g>
<!-- n13 -->
<g id="node5" class="node">
<title>n13</title>
<ellipse fill="none" stroke="black" cx="94.85" cy="-380.31" rx="28.7" ry="28.7"/>
<text text-anchor="middle" x="94.85" y="-376.61" font-family="Times,serif" font-size="14.00">n13</text>
</g>
<!-- n13&#45;&#45;n16 -->
<g id="edge8" class="edge">
<title>n13&#45;&#45;n16</title>
<path fill="none" stroke="black" d="M84.5,-353.51C72.09,-321.38 51.41,-267.86 38.99,-235.69"/>
</g>
<!-- n13&#45;&#45;n17 -->
<g id="edge7" class="edge">
<title>n13&#45;&#45;n17</title>
<path fill="none" stroke="black" d="M101.25,-352.41C116.35,-286.61 154.04,-122.3 169.14,-56.49"/>
</g>
<!-- n13&#45;&#45;n15 -->
<g id="edge9" class="edge">
<title>n13&#45;&#45;n15</title>
<path fill="none" stroke="black" d="M95.15,-351.51C95.63,-303.94 96.58,-209.52 97.06,-162.08"/>
</g>
<!-- n13&#45;&#45;n14 -->
<g id="edge10" class="edge">
<title>n13&#45;&#45;n14</title>
<path fill="none" stroke="black" d="M73.15,-361.51C66.18,-355.48 58.47,-348.8 51.5,-342.76"/>
</g>
<!-- n12 -->
<g id="node6" class="node">
<title>n12</title>
<ellipse fill="none" stroke="black" cx="197.48" cy="-263.73" rx="28.7" ry="28.7"/>
<text text-anchor="middle" x="197.48" y="-260.03" font-family="Times,serif" font-size="14.00">n12</text>
</g>
<!-- n12&#45;&#45;n16 -->
<g id="edge12" class="edge">
<title>n12&#45;&#45;n16</title>
<path fill="none" stroke="black" d="M169.97,-254.78C138.47,-244.54 87.19,-227.86 55.82,-217.65"/>
</g>
<!-- n12&#45;&#45;n17 -->
<g id="edge11" class="edge">
<title>n12&#45;&#45;n17</title>
<path fill="none" stroke="black" d="M194.79,-234.9C190.56,-189.65 182.43,-102.47 178.21,-57.3"/>
</g>
<!-- n12&#45;&#45;n15 -->
<g id="edge13" class="edge">
<title>n12&#45;&#45;n15</title>
<path fill="none" stroke="black" d="M180.04,-241.04C161.77,-217.28 133.25,-180.16 114.93,-156.33"/>
</g>
<!-- n12&#45;&#45;n14 -->
<g id="edge14" class="edge">
<title>n12&#45;&#45;n14</title>
<path fill="none" stroke="black" d="M170.52,-273.39C139.29,-284.58 88.15,-302.9 56.83,-314.12"/>
</g>
<!-- n12&#45;&#45;n13 -->
<g id="edge15" class="edge">
<title>n12&#45;&#45;n13</title>
<path fill="none" stroke="black" d="M178.42,-285.39C159.98,-306.32 132.21,-337.87 113.81,-358.77"/>
</g>
<!-- n11 -->
<g id="node7" class="node">
<title>n11</title>
<ellipse fill="none" stroke="black" cx="265.98" cy="-179.78" rx="28.7" ry="28.7"/>
<text text-anchor="middle" x="265.98" y="-176.08" font-family="Times,serif" font-size="14.00">n11</text>
</g>
<!-- n11&#45;&#45;n16 -->
<g id="edge17" class="edge">
<title>n11&#45;&#45;n16</title>
<path fill="none" stroke="black" d="M237.35,-183.28C191.72,-188.86 103.02,-199.7 57.33,-205.29"/>
</g>
<!-- n11&#45;&#45;n17 -->
<g id="edge16" class="edge">
<title>n11&#45;&#45;n17</title>
<path fill="none" stroke="black" d="M251.25,-155.16C234.43,-127.04 207.08,-81.32 190.26,-53.21"/>
</g>
<!-- n11&#45;&#45;n15 -->
<g id="edge18" class="edge">
<title>n11&#45;&#45;n15</title>
<path fill="none" stroke="black" d="M238.14,-172.14C206.8,-163.53 156.2,-149.63 124.96,-141.04"/>
</g>
<!-- n11&#45;&#45;n14 -->
<g id="edge19" class="edge">
<title>n11&#45;&#45;n14</title>
<path fill="none" stroke="black" d="M241.14,-194.93C195.63,-222.67 99.43,-281.32 54.17,-308.91"/>
</g>
<!-- n11&#45;&#45;n13 -->
<g id="edge20" class="edge">
<title>n11&#45;&#45;n13</title>
<path fill="none" stroke="black" d="M247.34,-201.63C214.42,-240.2 146.37,-319.94 113.47,-358.49"/>
</g>
<!-- n11&#45;&#45;n12 -->
<g id="edge21" class="edge">
<title>n11&#45;&#45;n12</title>
<path fill="none" stroke="black" d="M247.62,-202.28C237.72,-214.42 225.53,-229.36 215.65,-241.47"/>
</g>
<!-- n10 -->
<g id="node8" class="node">
<title>n10</title>
<ellipse fill="none" stroke="black" cx="343.62" cy="-158.8" rx="28.7" ry="28.7"/>
<text text-anchor="middle" x="343.62" y="-155.1" font-family="Times,serif" font-size="14.00">n10</text>
</g>
<!-- n10&#45;&#45;n16 -->
<g id="edge23" class="edge">
<title>n10&#45;&#45;n16</title>
<path fill="none" stroke="black" d="M315.11,-163.32C255.28,-172.82 117.24,-194.73 57.27,-204.25"/>
</g>
<!-- n10&#45;&#45;n17 -->
<g id="edge22" class="edge">
<title>n10&#45;&#45;n17</title>
<path fill="none" stroke="black" d="M320.95,-141.24C288.87,-116.39 230.56,-71.22 198.38,-46.29"/>
</g>
<!-- n10&#45;&#45;n15 -->
<g id="edge24" class="edge">
<title>n10&#45;&#45;n15</title>
<path fill="none" stroke="black" d="M314.89,-155.84C267.43,-150.96 173.23,-141.27 125.9,-136.4"/>
</g>
<!-- n10&#45;&#45;n14 -->
<g id="edge25" class="edge">
<title>n10&#45;&#45;n14</title>
<path fill="none" stroke="black" d="M318.19,-172.17C259.36,-203.09 114.38,-279.31 55.32,-310.36"/>
</g>
<!-- n10&#45;&#45;n13 -->
<g id="edge26" class="edge">
<title>n10&#45;&#45;n13</title>
<path fill="none" stroke="black" d="M321.98,-178.07C274.81,-220.07 163.23,-319.43 116.27,-361.24"/>
</g>
<!-- n10&#45;&#45;n12 -->
<g id="edge27" class="edge">
<title>n10&#45;&#45;n12</title>
<path fill="none" stroke="black" d="M320.14,-175.66C292.87,-195.24 248.15,-227.35 220.9,-246.92"/>
</g>
<!-- n10&#45;&#45;n11 -->
<g id="edge28" class="edge">
<title>n10&#45;&#45;n11</title>
<path fill="none" stroke="black" d="M315.59,-166.37C308.47,-168.3 300.82,-170.37 293.71,-172.29"/>
</g>
<!-- n9 -->
<g id="node9" class="node">
<title>n9</title>
<ellipse fill="none" stroke="black" cx="286.72" cy="-332.48" rx="23" ry="23"/>
<text text-anchor="middle" x="286.72" y="-328.78" font-family="Times,serif" font-size="14.00">n9</text>
</g>
<!-- n9&#45;&#45;n16 -->
<g id="edge30" class="edge">
<title>n9&#45;&#45;n16</title>
<path fill="none" stroke="black" d="M266.03,-322.57C219.38,-300.21 106.04,-245.91 54.67,-221.29"/>
</g>
<!-- n9&#45;&#45;n17 -->
<g id="edge29" class="edge">
<title>n9&#45;&#45;n17</title>
<path fill="none" stroke="black" d="M278.9,-311.11C259.13,-257.07 207.16,-115.04 185.37,-55.48"/>
</g>
<!-- n9&#45;&#45;n15 -->
<g id="edge31" class="edge">
<title>n9&#45;&#45;n15</title>
<path fill="none" stroke="black" d="M270.9,-315.86C236.5,-279.7 154.95,-194 117.18,-154.3"/>
</g>
<!-- n9&#45;&#45;n14 -->
<g id="edge32" class="edge">
<title>n9&#45;&#45;n14</title>
<path fill="none" stroke="black" d="M263.91,-331.72C217.09,-330.15 110.24,-326.56 58.62,-324.83"/>
</g>
<!-- n9&#45;&#45;n13 -->
<g id="edge33" class="edge">
<title>n9&#45;&#45;n13</title>
<path fill="none" stroke="black" d="M264.34,-338.06C229.15,-346.83 160.95,-363.83 122.67,-373.37"/>
</g>
<!-- n9&#45;&#45;n12 -->
<g id="edge34" class="edge">
<title>n9&#45;&#45;n12</title>
<path fill="none" stroke="black" d="M268.66,-318.57C254.71,-307.82 235.3,-292.87 220.28,-281.3"/>
</g>
<!-- n9&#45;&#45;n11 -->
<g id="edge35" class="edge">
<title>n9&#45;&#45;n11</title>
<path fill="none" stroke="black" d="M283.62,-309.62C279.94,-282.58 273.83,-237.56 269.85,-208.27"/>
</g>
<!-- n9&#45;&#45;n10 -->
<g id="edge36" class="edge">
<title>n9&#45;&#45;n10</title>
<path fill="none" stroke="black" d="M293.81,-310.84C304.15,-279.28 323.35,-220.66 334.65,-186.16"/>
</g>
<!-- n8 -->
<g id="node10" class="node">
<title>n8</title>
<ellipse fill="none" stroke="black" cx="356.2" cy="-272.98" rx="23" ry="23"/>
<text text-anchor="middle" x="356.2" y="-269.28" font-family="Times,serif" font-size="14.00">n8</text>
</g>
<!-- n8&#45;&#45;n16 -->
<g id="edge38" class="edge">
<title>n8&#45;&#45;n16</title>
<path fill="none" stroke="black" d="M333.69,-268.57C275.57,-257.18 120.64,-226.83 56.75,-214.32"/>
</g>
<!-- n8&#45;&#45;n17 -->
<g id="edge37" class="edge">
<title>n8&#45;&#45;n17</title>
<path fill="none" stroke="black" d="M342.62,-254.61C310.21,-210.77 228.36,-100.05 192.64,-51.74"/>
</g>
<!-- n8&#45;&#45;n15 -->
<g id="edge39" class="edge">
<title>n8&#45;&#45;n15</title>
<path fill="none" stroke="black" d="M335.89,-262.03C289.17,-236.85 174.16,-174.86 122.82,-147.19"/>
</g>
<!-- n8&#45;&#45;n14 -->
<g id="edge40" class="edge">
<title>n8&#45;&#45;n14</title>
<path fill="none" stroke="black" d="M333.5,-276.52C275.5,-285.55 121.97,-309.47 58.13,-319.42"/>
</g>
<!-- n8&#45;&#45;n13 -->
<g id="edge41" class="edge">
<title>n8&#45;&#45;n13</title>
<path fill="none" stroke="black" d="M334.82,-281.76C287.39,-301.24 173.51,-348 121.54,-369.35"/>
</g>
<!-- n8&#45;&#45;n12 -->
<g id="edge42" class="edge">
<title>n8&#45;&#45;n12</title>
<path fill="none" stroke="black" d="M333.46,-271.66C305.17,-270.01 256.86,-267.19 226.09,-265.4"/>
</g>
<!-- n8&#45;&#45;n11 -->
<g id="edge43" class="edge">
<title>n8&#45;&#45;n11</title>
<path fill="none" stroke="black" d="M340.07,-256.32C324.97,-240.72 302.35,-217.35 286.08,-200.54"/>
</g>
<!-- n8&#45;&#45;n10 -->
<g id="edge44" class="edge">
<title>n8&#45;&#45;n10</title>
<path fill="none" stroke="black" d="M353.69,-250.15C351.69,-232.06 348.9,-206.68 346.76,-187.26"/>
</g>
<!-- n8&#45;&#45;n9 -->
<g id="edge45" class="edge">
<title>n8&#45;&#45;n9</title>
<path fill="none" stroke="black" d="M338.67,-288C328.06,-297.08 314.58,-308.63 304.01,-317.68"/>
</g>
<!-- n7 -->
<g id="node11" class="node">
<title>n7</title>
<ellipse fill="none" stroke="black" cx="280.31" cy="-421.61" rx="23" ry="23"/>
<text text-anchor="middle" x="280.31" y="-417.91" font-family="Times,serif" font-size="14.00">n7</text>
</g>
<!-- n7&#45;&#45;n16 -->
<g id="edge46" class="edge">
<title>n7&#45;&#45;n16</title>
<path fill="none" stroke="black" d="M262.61,-406.65C217.74,-368.71 99.61,-268.84 50.5,-227.32"/>
</g>
<!-- n7&#45;&#45;n15 -->
<g id="edge47" class="edge">
<title>n7&#45;&#45;n15</title>
<path fill="none" stroke="black" d="M268.03,-402.26C235.74,-351.4 148.54,-214.07 112.87,-157.91"/>
</g>
<!-- n7&#45;&#45;n14 -->
<g id="edge48" class="edge">
<title>n7&#45;&#45;n14</title>
<path fill="none" stroke="black" d="M258.94,-413.28C213.36,-395.5 106.69,-353.9 56.57,-334.35"/>
</g>
<!-- n7&#45;&#45;n13 -->
<g id="edge49" class="edge">
<title>n7&#45;&#45;n13</title>
<path fill="none" stroke="black" d="M257.94,-416.63C224.13,-409.1 160.03,-394.82 123.06,-386.59"/>
</g>
<!-- n7&#45;&#45;n12 -->
<g id="edge50" class="edge">
<title>n7&#45;&#45;n12</title>
<path fill="none" stroke="black" d="M269.65,-401.29C254.62,-372.65 227.21,-320.4 210.84,-289.19"/>
</g>
<!-- n7&#45;&#45;n11 -->
<g id="edge51" class="edge">
<title>n7&#45;&#45;n11</title>
<path fill="none" stroke="black" d="M278.97,-398.86C276.35,-354.65 270.57,-257.23 267.69,-208.59"/>
</g>
<!-- n7&#45;&#45;n10 -->
<g id="edge52" class="edge">
<title>n7&#45;&#45;n10</title>
<path fill="none" stroke="black" d="M285.71,-399.2C297.25,-351.29 324.3,-238.98 336.92,-186.61"/>
</g>
<!-- n7&#45;&#45;n9 -->
<g id="edge53" class="edge">
<title>n7&#45;&#45;n9</title>
<path fill="none" stroke="black" d="M281.96,-398.66C282.92,-385.35 284.12,-368.65 285.08,-355.36"/>
</g>
<!-- n7&#45;&#45;n8 -->
<g id="edge54" class="edge">
<title>n7&#45;&#45;n8</title>
<path fill="none" stroke="black" d="M290.71,-401.26C305.16,-372.95 331.18,-321.99 345.69,-293.57"/>
</g>
<!-- n6 -->
<g id="node12" class="node">
<title>n6</title>
<ellipse fill="none" stroke="black" cx="205.23" cy="-461.67" rx="23" ry="23"/>
<text text-anchor="middle" x="205.23" y="-457.97" font-family="Times,serif" font-size="14.00">n6</text>
</g>
<!-- n6&#45;&#45;n16 -->
<g id="edge55" class="edge">
<title>n6&#45;&#45;n16</title>
<path fill="none" stroke="black" d="M191.96,-442.66C160.19,-397.18 79.84,-282.16 45.06,-232.37"/>
</g>
<!-- n6&#45;&#45;n15 -->
<g id="edge56" class="edge">
<title>n6&#45;&#45;n15</title>
<path fill="none" stroke="black" d="M198.07,-439.88C179.06,-382.04 127.34,-224.7 106.37,-160.89"/>
</g>
<!-- n6&#45;&#45;n14 -->
<g id="edge57" class="edge">
<title>n6&#45;&#45;n14</title>
<path fill="none" stroke="black" d="M187.11,-447.44C154.86,-422.13 87.63,-369.36 52.37,-341.68"/>
</g>
<!-- n6&#45;&#45;n13 -->
<g id="edge58" class="edge">
<title>n6&#45;&#45;n13</title>
<path fill="none" stroke="black" d="M186.51,-447.87C167.57,-433.9 138.25,-412.29 117.89,-397.29"/>
</g>
<!-- n6&#45;&#45;n12 -->
<g id="edge59" class="edge">
<title>n6&#45;&#45;n12</title>
<path fill="none" stroke="black" d="M204.33,-438.58C202.91,-402.27 200.15,-331.92 198.6,-292.43"/>
</g>
<!-- n6&#45;&#45;n11 -->
<g id="edge60" class="edge">
<title>n6&#45;&#45;n11</title>
<path fill="none" stroke="black" d="M210.1,-439.08C221.11,-388 247.89,-263.72 259.94,-207.83"/>
</g>
<!-- n6&#45;&#45;n10 -->
<g id="edge61" class="edge">
<title>n6&#45;&#45;n10</title>
<path fill="none" stroke="black" d="M214.75,-440.85C239.29,-387.13 304.74,-243.89 331.73,-184.82"/>
</g>
<!-- n6&#45;&#45;n9 -->
<g id="edge62" class="edge">
<title>n6&#45;&#45;n9</title>
<path fill="none" stroke="black" d="M217.43,-442.33C232.8,-417.97 259.04,-376.37 274.44,-351.96"/>
</g>
<!-- n6&#45;&#45;n8 -->
<g id="edge63" class="edge">
<title>n6&#45;&#45;n8</title>
<path fill="none" stroke="black" d="M219.71,-443.58C248.57,-407.51 312.95,-327.04 341.77,-291.02"/>
</g>
<!-- n6&#45;&#45;n7 -->
<g id="edge64" class="edge">
<title>n6&#45;&#45;n7</title>
<path fill="none" stroke="black" d="M225.35,-450.93C236.13,-445.19 249.36,-438.13 260.14,-432.38"/>
</g>
<!-- n5 -->
<g id="node13" class="node">
<title>n5</title>
<ellipse fill="none" stroke="black" cx="297.43" cy="-525.4" rx="23" ry="23"/>
<text text-anchor="middle" x="297.43" y="-521.7" font-family="Times,serif" font-size="14.00">n5</text>
</g>
<!-- n5&#45;&#45;n14 -->
<g id="edge65" class="edge">
<title>n5&#45;&#45;n14</title>
<path fill="none" stroke="black" d="M279.02,-511.55C231.52,-475.79 104.89,-380.48 52.67,-341.17"/>
</g>
<!-- n5&#45;&#45;n13 -->
<g id="edge66" class="edge">
<title>n5&#45;&#45;n13</title>
<path fill="none" stroke="black" d="M278.73,-512.01C241.61,-485.42 158.69,-426.03 118.12,-396.97"/>
</g>
<!-- n5&#45;&#45;n12 -->
<g id="edge67" class="edge">
<title>n5&#45;&#45;n12</title>
<path fill="none" stroke="black" d="M289.25,-503.99C271.16,-456.63 227.78,-343.07 207.84,-290.85"/>
</g>
<!-- n5&#45;&#45;n11 -->
<g id="edge68" class="edge">
<title>n5&#45;&#45;n11</title>
<path fill="none" stroke="black" d="M295.36,-502.72C289.84,-442.05 274.74,-276.06 268.62,-208.73"/>
</g>
<!-- n5&#45;&#45;n10 -->
<g id="edge69" class="edge">
<title>n5&#45;&#45;n10</title>
<path fill="none" stroke="black" d="M300.28,-502.74C308.32,-438.89 331.17,-257.57 340.04,-187.2"/>
</g>
<!-- n5&#45;&#45;n9 -->
<g id="edge70" class="edge">
<title>n5&#45;&#45;n9</title>
<path fill="none" stroke="black" d="M296.16,-502.51C294.1,-465.38 290.05,-392.45 287.99,-355.34"/>
</g>
<!-- n5&#45;&#45;n8 -->
<g id="edge71" class="edge">
<title>n5&#45;&#45;n8</title>
<path fill="none" stroke="black" d="M302.64,-503C313.8,-455.1 339.85,-343.19 351,-295.33"/>
</g>
<!-- n5&#45;&#45;n7 -->
<g id="edge72" class="edge">
<title>n5&#45;&#45;n7</title>
<path fill="none" stroke="black" d="M293.71,-502.88C290.84,-485.47 286.89,-461.48 284.02,-444.09"/>
</g>
<!-- n5&#45;&#45;n6 -->
<g id="edge73" class="edge">
<title>n5&#45;&#45;n6</title>
<path fill="none" stroke="black" d="M278.32,-512.19C262.4,-501.18 239.83,-485.58 224,-474.64"/>
</g>
<!-- n4 -->
<g id="node14" class="node">
<title>n4</title>
<ellipse fill="none" stroke="black" cx="467.97" cy="-355.62" rx="23" ry="23"/>
<text text-anchor="middle" x="467.97" y="-351.92" font-family="Times,serif" font-size="14.00">n4</text>
</g>
<!-- n4&#45;&#45;n13 -->
<g id="edge74" class="edge">
<title>n4&#45;&#45;n13</title>
<path fill="none" stroke="black" d="M445.19,-357.13C380.4,-361.42 195.14,-373.67 123.57,-378.41"/>
</g>
<!-- n4&#45;&#45;n12 -->
<g id="edge75" class="edge">
<title>n4&#45;&#45;n12</title>
<path fill="none" stroke="black" d="M446.29,-348.26C397.4,-331.65 278.63,-291.3 224.8,-273.01"/>
</g>
<!-- n4&#45;&#45;n11 -->
<g id="edge76" class="edge">
<title>n4&#45;&#45;n11</title>
<path fill="none" stroke="black" d="M450.75,-340.63C414.02,-308.66 328.05,-233.82 287.67,-198.66"/>
</g>
<!-- n4&#45;&#45;n10 -->
<g id="edge77" class="edge">
<title>n4&#45;&#45;n10</title>
<path fill="none" stroke="black" d="M455.59,-336.03C432.74,-299.86 383.98,-222.69 359.03,-183.19"/>
</g>
<!-- n4&#45;&#45;n9 -->
<g id="edge78" class="edge">
<title>n4&#45;&#45;n9</title>
<path fill="none" stroke="black" d="M445.38,-352.74C410.55,-348.29 344.14,-339.81 309.31,-335.37"/>
</g>
<!-- n4&#45;&#45;n8 -->
<g id="edge79" class="edge">
<title>n4&#45;&#45;n8</title>
<path fill="none" stroke="black" d="M449.51,-341.98C428.81,-326.67 395.41,-301.97 374.69,-286.65"/>
</g>
<!-- n4&#45;&#45;n7 -->
<g id="edge80" class="edge">
<title>n4&#45;&#45;n7</title>
<path fill="none" stroke="black" d="M446.44,-363.19C410.34,-375.89 338,-401.32 301.88,-414.03"/>
</g>
<!-- n4&#45;&#45;n6 -->
<g id="edge81" class="edge">
<title>n4&#45;&#45;n6</title>
<path fill="none" stroke="black" d="M446.47,-364.3C397.08,-384.24 275.98,-433.11 226.66,-453.02"/>
</g>
<!-- n4&#45;&#45;n5 -->
<g id="edge82" class="edge">
<title>n4&#45;&#45;n5</title>
<path fill="none" stroke="black" d="M451.62,-371.9C419.02,-404.35 346.29,-476.76 313.73,-509.17"/>
</g>
<!-- n3 -->
<g id="node15" class="node">
<title>n3</title>
<ellipse fill="none" stroke="black" cx="464.04" cy="-447.05" rx="23" ry="23"/>
<text text-anchor="middle" x="464.04" y="-443.35" font-family="Times,serif" font-size="14.00">n3</text>
</g>
<!-- n3&#45;&#45;n12 -->
<g id="edge83" class="edge">
<title>n3&#45;&#45;n12</title>
<path fill="none" stroke="black" d="M445.29,-434.16C397.89,-401.56 273.3,-315.88 221.06,-279.95"/>
</g>
<!-- n3&#45;&#45;n11 -->
<g id="edge84" class="edge">
<title>n3&#45;&#45;n11</title>
<path fill="none" stroke="black" d="M450.42,-428.68C415.38,-381.39 322.09,-255.5 283.29,-203.14"/>
</g>
<!-- n3&#45;&#45;n10 -->
<g id="edge85" class="edge">
<title>n3&#45;&#45;n10</title>
<path fill="none" stroke="black" d="M455.18,-425.85C433.62,-374.24 378.42,-242.11 354.71,-185.35"/>
</g>
<!-- n3&#45;&#45;n9 -->
<g id="edge86" class="edge">
<title>n3&#45;&#45;n9</title>
<path fill="none" stroke="black" d="M444.72,-434.57C410.61,-412.53 340.1,-366.97 306.01,-344.95"/>
</g>
<!-- n3&#45;&#45;n8 -->
<g id="edge87" class="edge">
<title>n3&#45;&#45;n8</title>
<path fill="none" stroke="black" d="M451.87,-427.42C431.11,-393.9 389.05,-326.01 368.32,-292.54"/>
</g>
<!-- n3&#45;&#45;n7 -->
<g id="edge88" class="edge">
<title>n3&#45;&#45;n7</title>
<path fill="none" stroke="black" d="M441.14,-443.88C405.74,-438.98 338.14,-429.62 302.92,-424.74"/>
</g>
<!-- n3&#45;&#45;n6 -->
<g id="edge89" class="edge">
<title>n3&#45;&#45;n6</title>
<path fill="none" stroke="black" d="M441.07,-448.35C391.96,-451.12 277.22,-457.6 228.15,-460.38"/>
</g>
<!-- n3&#45;&#45;n5 -->
<g id="edge90" class="edge">
<title>n3&#45;&#45;n5</title>
<path fill="none" stroke="black" d="M443.27,-456.82C411.26,-471.87 350.2,-500.58 318.19,-515.63"/>
</g>
<!-- n3&#45;&#45;n4 -->
<g id="edge91" class="edge">
<title>n3&#45;&#45;n4</title>
<path fill="none" stroke="black" d="M465.03,-423.98C465.63,-410.01 466.39,-392.28 466.99,-378.37"/>
</g>
<!-- n2 -->
<g id="node16" class="node">
<title>n2</title>
<ellipse fill="none" stroke="black" cx="530.28" cy="-285.45" rx="23" ry="23"/>
<text text-anchor="middle" x="530.28" y="-281.75" font-family="Times,serif" font-size="14.00">n2</text>
</g>
<!-- n2&#45;&#45;n12 -->
<g id="edge92" class="edge">
<title>n2&#45;&#45;n12</title>
<path fill="none" stroke="black" d="M507.4,-283.96C448.37,-280.1 290.98,-269.83 226.07,-265.6"/>
</g>
<!-- n2&#45;&#45;n11 -->
<g id="edge93" class="edge">
<title>n2&#45;&#45;n11</title>
<path fill="none" stroke="black" d="M509.1,-276.98C461.32,-257.88 345.27,-211.48 292.68,-190.46"/>
</g>
<!-- n2&#45;&#45;n10 -->
<g id="edge94" class="edge">
<title>n2&#45;&#45;n10</title>
<path fill="none" stroke="black" d="M511.35,-272.61C477.15,-249.4 405.12,-200.53 367.56,-175.04"/>
</g>
<!-- n2&#45;&#45;n9 -->
<g id="edge95" class="edge">
<title>n2&#45;&#45;n9</title>
<path fill="none" stroke="black" d="M507.8,-289.79C461.4,-298.75 355.5,-319.2 309.14,-328.15"/>
</g>
<!-- n2&#45;&#45;n8 -->
<g id="edge96" class="edge">
<title>n2&#45;&#45;n8</title>
<path fill="none" stroke="black" d="M507.52,-283.82C474.16,-281.43 412.33,-277 378.97,-274.61"/>
</g>
<!-- n2&#45;&#45;n7 -->
<g id="edge97" class="edge">
<title>n2&#45;&#45;n7</title>
<path fill="none" stroke="black" d="M510.24,-296.36C463.44,-321.86 347.34,-385.1 300.44,-410.65"/>
</g>
<!-- n2&#45;&#45;n6 -->
<g id="edge98" class="edge">
<title>n2&#45;&#45;n6</title>
<path fill="none" stroke="black" d="M509.94,-296.47C451.57,-328.12 283.92,-419.01 225.56,-450.65"/>
</g>
<!-- n2&#45;&#45;n5 -->
<g id="edge99" class="edge">
<title>n2&#45;&#45;n5</title>
<path fill="none" stroke="black" d="M514.27,-301.94C471.73,-345.78 356.21,-464.82 313.54,-508.79"/>
</g>
<!-- n2&#45;&#45;n4 -->
<g id="edge100" class="edge">
<title>n2&#45;&#45;n4</title>
<path fill="none" stroke="black" d="M514.88,-302.8C505.22,-313.67 492.82,-327.64 483.2,-338.48"/>
</g>
<!-- n2&#45;&#45;n3 -->
<g id="edge101" class="edge">
<title>n2&#45;&#45;n3</title>
<path fill="none" stroke="black" d="M521.62,-306.57C508.92,-337.55 485.39,-394.94 472.7,-425.92"/>
</g>
<!-- n1 -->
<g id="node17" class="node">
<title>n1</title>
<ellipse fill="none" stroke="black" cx="554.94" cy="-516.94" rx="23" ry="23"/>
<text text-anchor="middle" x="554.94" y="-513.24" font-family="Times,serif" font-size="14.00">n1</text>
</g>
<!-- n1&#45;&#45;n9 -->
<g id="edge102" class="edge">
<title>n1&#45;&#45;n9</title>
<path fill="none" stroke="black" d="M536.08,-503.97C486.84,-470.1 354.79,-379.29 305.56,-345.44"/>
</g>
<!-- n1&#45;&#45;n8 -->
<g id="edge103" class="edge">
<title>n1&#45;&#45;n8</title>
<path fill="none" stroke="black" d="M540.33,-499C503.58,-453.89 407.61,-336.09 370.84,-290.95"/>
</g>
<!-- n1&#45;&#45;n7 -->
<g id="edge104" class="edge">
<title>n1&#45;&#45;n7</title>
<path fill="none" stroke="black" d="M533.39,-509.46C482.18,-491.68 353.64,-447.06 302.14,-429.19"/>
</g>
<!-- n1&#45;&#45;n6 -->
<g id="edge105" class="edge">
<title>n1&#45;&#45;n6</title>
<path fill="none" stroke="black" d="M532.27,-513.36C469,-503.36 291.06,-475.23 227.86,-465.25"/>
</g>
<!-- n1&#45;&#45;n5 -->
<g id="edge106" class="edge">
<title>n1&#45;&#45;n5</title>
<path fill="none" stroke="black" d="M532.09,-517.69C483.22,-519.3 369.05,-523.05 320.23,-524.65"/>
</g>
<!-- n1&#45;&#45;n4 -->
<g id="edge107" class="edge">
<title>n1&#45;&#45;n4</title>
<path fill="none" stroke="black" d="M544.11,-496.84C527.39,-465.84 495.52,-406.73 478.81,-375.73"/>
</g>
<!-- n1&#45;&#45;n3 -->
<g id="edge108" class="edge">
<title>n1&#45;&#45;n3</title>
<path fill="none" stroke="black" d="M536.55,-502.8C520.67,-490.59 497.87,-473.06 482.09,-460.93"/>
</g>
<!-- n1&#45;&#45;n2 -->
<g id="edge109" class="edge">
<title>n1&#45;&#45;n2</title>
<path fill="none" stroke="black" d="M552.49,-493.9C547.76,-449.53 537.44,-352.7 532.72,-308.4"/>
</g>
<!-- n0 -->
<g id="node18" class="node">
<title>n0</title>
<ellipse fill="none" stroke="black" cx="423.95" cy="-613.19" rx="23" ry="23"/>
<text text-anchor="middle" x="423.95" y="-609.49" font-family="Times,serif" font-size="14.00">n0</text>
</g>
<!-- n0&#45;&#45;n9 -->
<g id="edge110" class="edge">
<title>n0&#45;&#45;n9</title>
<path fill="none" stroke="black" d="M413.86,-592.54C388.48,-540.63 322.22,-405.1 296.83,-353.15"/>
</g>
<!-- n0&#45;&#45;n8 -->
<g id="edge111" class="edge">
<title>n0&#45;&#45;n8</title>
<path fill="none" stroke="black" d="M419.5,-590.86C407.23,-529.22 372.96,-357.13 360.66,-295.38"/>
</g>
<!-- n0&#45;&#45;n7 -->
<g id="edge112" class="edge">
<title>n0&#45;&#45;n7</title>
<path fill="none" stroke="black" d="M410.18,-594.82C382.72,-558.2 321.46,-476.5 294.04,-439.92"/>
</g>
<!-- n0&#45;&#45;n6 -->
<g id="edge113" class="edge">
<title>n0&#45;&#45;n6</title>
<path fill="none" stroke="black" d="M404.92,-600C363.45,-571.28 265.35,-503.31 224.06,-474.71"/>
</g>
<!-- n0&#45;&#45;n5 -->
<g id="edge114" class="edge">
<title>n0&#45;&#45;n5</title>
<path fill="none" stroke="black" d="M405.01,-600.04C381.15,-583.49 340.41,-555.22 316.5,-538.63"/>
</g>
<!-- n0&#45;&#45;n4 -->
<g id="edge115" class="edge">
<title>n0&#45;&#45;n4</title>
<path fill="none" stroke="black" d="M427.85,-590.33C436.23,-541.33 455.82,-426.69 464.14,-378.06"/>
</g>
<!-- n0&#45;&#45;n3 -->
<g id="edge116" class="edge">
<title>n0&#45;&#45;n3</title>
<path fill="none" stroke="black" d="M429.35,-590.78C437.03,-558.98 450.99,-501.11 458.65,-469.37"/>
</g>
<!-- n0&#45;&#45;n2 -->
<g id="edge117" class="edge">
<title>n0&#45;&#45;n2</title>
<path fill="none" stroke="black" d="M431.01,-591.43C450.3,-531.95 503.78,-367.13 523.15,-307.41"/>
</g>
<!-- n0&#45;&#45;n1 -->
<g id="edge118" class="edge">
<title>n0&#45;&#45;n1</title>
<path fill="none" stroke="black" d="M442.44,-599.6C467.4,-581.26 511.63,-548.76 536.55,-530.46"/>
</g>
</g>
</svg>
