<?xml version="1.0" standalone="yes"?>
<!-- SVG graphic -->
<svg xmlns='http://www.w3.org/2000/svg' xmlns:xlink='http://www.w3.org/1999/xlink'
width="105px" height="105px" preserveAspectRatio="xMinYMin meet" viewBox="0 0 105 105" version="1.1">
<rect x="5" y="0" width="2.5" height="2.5" fill="rgb(208,0,46)" opacity="1"/>
<rect x="10" y="0" width="2.5" height="2.5" fill="rgb(175,0,79)" opacity="1"/>
<rect x="15" y="0" width="2.5" height="2.5" fill="rgb(119,0,135)" opacity="1"/>
<rect x="20" y="0" width="2.5" height="2.5" fill="rgb(84,0,170)" opacity="1"/>
<rect x="25" y="0" width="2.5" height="2.5" fill="rgb(57,0,197)" opacity="1"/>
<rect x="30" y="0" width="2.5" height="2.5" fill="rgb(34,0,220)" opacity="1"/>
<rect x="35" y="0" width="2.5" height="2.5" fill="rgb(27,0,227)" opacity="1"/>
<rect x="40" y="0" width="2.5" height="2.5" fill="rgb(22,0,232)" opacity="1"/>
<rect x="45" y="0" width="2.5" height="2.5" fill="rgb(18,0,236)" opacity="1"/>
<rect x="50" y="0" width="2.5" height="2.5" fill="rgb(19,0,235)" opacity="1"/>
<rect x="55" y="0" width="2.5" height="2.5" fill="rgb(19,0,235)" opacity="1"/>
<rect x="60" y="0" width="2.5" height="2.5" fill="rgb(15,0,239)" opacity="1"/>
<rect x="65" y="0" width="2.5" height="2.5" fill="rgb(15,0,239)" opacity="1"/>
<rect x="70" y="0" width="2.5" height="2.5" fill="rgb(14,0,240)" opacity="1"/>
<rect x="75" y="0" width="2.5" height="2.5" fill="rgb(16,0,238)" opacity="1"/>
<rect x="80" y="0" width="2.5" height="2.5" fill="rgb(14,0,240)" opacity="1"/>
<rect x="85" y="0" width="2.5" height="2.5" fill="rgb(13,0,241)" opacity="1"/>
<rect x="10" y="5" width="2.5" height="2.5" fill="rgb(153,0,101)" opacity="1"/>
<rect x="15" y="5" width="2.5" height="2.5" fill="rgb(107,0,147)" opacity="1"/>
<rect x="20" y="5" width="2.5" height="2.5" fill="rgb(77,0,177)" opacity="1"/>
<rect x="25" y="5" width="2.5" height="2.5" fill="rgb(53,0,201)" opacity="1"/>
<rect x="30" y="5" width="2.5" height="2.5" fill="rgb(31,0,223)" opacity="1"/>
<rect x="35" y="5" width="2.5" height="2.5" fill="rgb(24,0,230)" opacity="1"/>
<rect x="40" y="5" width="2.5" height="2.5" fill="rgb(20,0,234)" opacity="1"/>
<rect x="45" y="5" width="2.5" height="2.5" fill="rgb(18,0,236)" opacity="1"/>
<rect x="50" y="5" width="2.5" height="2.5" fill="rgb(18,0,236)" opacity="1"/>
<rect x="55" y="5" width="2.5" height="2.5" fill="rgb(17,0,237)" opacity="1"/>
<rect x="60" y="5" width="2.5" height="2.5" fill="rgb(16,0,238)" opacity="1"/>
<rect x="65" y="5" width="2.5" height="2.5" fill="rgb(15,0,239)" opacity="1"/>
<rect x="70" y="5" width="2.5" height="2.5" fill="rgb(15,0,239)" opacity="1"/>
<rect x="75" y="5" width="2.5" height="2.5" fill="rgb(15,0,239)" opacity="1"/>
<rect x="80" y="5" width="2.5" height="2.5" fill="rgb(14,0,240)" opacity="1"/>
<rect x="85" y="5" width="2.5" height="2.5" fill="rgb(11,0,243)" opacity="1"/>
<rect x="15" y="10" width="2.5" height="2.5" fill="rgb(176,0,78)" opacity="1"/>
<rect x="20" y="10" width="2.5" height="2.5" fill="rgb(118,0,136)" opacity="1"/>
<rect x="25" y="10" width="2.5" height="2.5" fill="rgb(78,0,176)" opacity="1"/>
<rect x="30" y="10" width="2.5" height="2.5" fill="rgb(40,0,214)" opacity="1"/>
<rect x="35" y="10" width="2.5" height="2.5" fill="rgb(31,0,223)" opacity="1"/>
<rect x="40" y="10" width="2.5" height="2.5" fill="rgb(24,0,230)" opacity="1"/>
<rect x="45" y="10" width="2.5" height="2.5" fill="rgb(22,0,232)" opacity="1"/>
<rect x="50" y="10" width="2.5" height="2.5" fill="rgb(23,0,231)" opacity="1"/>
<rect x="55" y="10" width="2.5" height="2.5" fill="rgb(20,0,234)" opacity="1"/>
<rect x="60" y="10" width="2.5" height="2.5" fill="rgb(20,0,234)" opacity="1"/>
<rect x="65" y="10" width="2.5" height="2.5" fill="rgb(17,0,237)" opacity="1"/>
<rect x="70" y="10" width="2.5" height="2.5" fill="rgb(16,0,238)" opacity="1"/>
<rect x="75" y="10" width="2.5" height="2.5" fill="rgb(16,0,238)" opacity="1"/>
<rect x="80" y="10" width="2.5" height="2.5" fill="rgb(15,0,239)" opacity="1"/>
<rect x="85" y="10" width="2.5" height="2.5" fill="rgb(16,0,238)" opacity="1"/>
<rect x="20" y="15" width="2.5" height="2.5" fill="rgb(182,0,72)" opacity="1"/>
<rect x="25" y="15" width="2.5" height="2.5" fill="rgb(120,0,134)" opacity="1"/>
<rect x="30" y="15" width="2.5" height="2.5" fill="rgb(58,0,196)" opacity="1"/>
<rect x="35" y="15" width="2.5" height="2.5" fill="rgb(36,0,218)" opacity="1"/>
<rect x="40" y="15" width="2.5" height="2.5" fill="rgb(25,0,229)" opacity="1"/>
<rect x="45" y="15" width="2.5" height="2.5" fill="rgb(23,0,231)" opacity="1"/>
<rect x="50" y="15" width="2.5" height="2.5" fill="rgb(25,0,229)" opacity="1"/>
<rect x="55" y="15" width="2.5" height="2.5" fill="rgb(22,0,232)" opacity="1"/>
<rect x="60" y="15" width="2.5" height="2.5" fill="rgb(18,0,236)" opacity="1"/>
<rect x="65" y="15" width="2.5" height="2.5" fill="rgb(18,0,236)" opacity="1"/>
<rect x="70" y="15" width="2.5" height="2.5" fill="rgb(18,0,236)" opacity="1"/>
<rect x="75" y="15" width="2.5" height="2.5" fill="rgb(16,0,238)" opacity="1"/>
<rect x="80" y="15" width="2.5" height="2.5" fill="rgb(15,0,239)" opacity="1"/>
<rect x="85" y="15" width="2.5" height="2.5" fill="rgb(13,0,241)" opacity="1"/>
<rect x="25" y="20" width="2.5" height="2.5" fill="rgb(186,0,68)" opacity="1"/>
<rect x="30" y="20" width="2.5" height="2.5" fill="rgb(79,0,175)" opacity="1"/>
<rect x="35" y="20" width="2.5" height="2.5" fill="rgb(52,0,202)" opacity="1"/>
<rect x="40" y="20" width="2.5" height="2.5" fill="rgb(33,0,221)" opacity="1"/>
<rect x="45" y="20" width="2.5" height="2.5" fill="rgb(26,0,228)" opacity="1"/>
<rect x="50" y="20" width="2.5" height="2.5" fill="rgb(26,0,228)" opacity="1"/>
<rect x="55" y="20" width="2.5" height="2.5" fill="rgb(23,0,231)" opacity="1"/>
<rect x="60" y="20" width="2.5" height="2.5" fill="rgb(22,0,232)" opacity="1"/>
<rect x="65" y="20" width="2.5" height="2.5" fill="rgb(17,0,237)" opacity="1"/>
<rect x="70" y="20" width="2.5" height="2.5" fill="rgb(17,0,237)" opacity="1"/>
<rect x="75" y="20" width="2.5" height="2.5" fill="rgb(16,0,238)" opacity="1"/>
<rect x="80" y="20" width="2.5" height="2.5" fill="rgb(17,0,237)" opacity="1"/>
<rect x="85" y="20" width="2.5" height="2.5" fill="rgb(16,0,238)" opacity="1"/>
<rect x="30" y="25" width="2.5" height="2.5" fill="rgb(110,0,144)" opacity="1"/>
<rect x="35" y="25" width="2.5" height="2.5" fill="rgb(65,0,189)" opacity="1"/>
<rect x="40" y="25" width="2.5" height="2.5" fill="rgb(40,0,214)" opacity="1"/>
<rect x="45" y="25" width="2.5" height="2.5" fill="rgb(32,0,222)" opacity="1"/>
<rect x="50" y="25" width="2.5" height="2.5" fill="rgb(28,0,226)" opacity="1"/>
<rect x="55" y="25" width="2.5" height="2.5" fill="rgb(26,0,228)" opacity="1"/>
<rect x="60" y="25" width="2.5" height="2.5" fill="rgb(21,0,233)" opacity="1"/>
<rect x="65" y="25" width="2.5" height="2.5" fill="rgb(19,0,235)" opacity="1"/>
<rect x="70" y="25" width="2.5" height="2.5" fill="rgb(18,0,236)" opacity="1"/>
<rect x="75" y="25" width="2.5" height="2.5" fill="rgb(17,0,237)" opacity="1"/>
<rect x="80" y="25" width="2.5" height="2.5" fill="rgb(18,0,236)" opacity="1"/>
<rect x="85" y="25" width="2.5" height="2.5" fill="rgb(15,0,239)" opacity="1"/>
<rect x="35" y="30" width="2.5" height="2.5" fill="rgb(151,0,103)" opacity="1"/>
<rect x="40" y="30" width="2.5" height="2.5" fill="rgb(74,0,180)" opacity="1"/>
<rect x="45" y="30" width="2.5" height="2.5" fill="rgb(58,0,196)" opacity="1"/>
<rect x="50" y="30" width="2.5" height="2.5" fill="rgb(47,0,207)" opacity="1"/>
<rect x="55" y="30" width="2.5" height="2.5" fill="rgb(41,0,213)" opacity="1"/>
<rect x="60" y="30" width="2.5" height="2.5" fill="rgb(30,0,224)" opacity="1"/>
<rect x="65" y="30" width="2.5" height="2.5" fill="rgb(24,0,230)" opacity="1"/>
<rect x="70" y="30" width="2.5" height="2.5" fill="rgb(22,0,232)" opacity="1"/>
<rect x="75" y="30" width="2.5" height="2.5" fill="rgb(22,0,232)" opacity="1"/>
<rect x="80" y="30" width="2.5" height="2.5" fill="rgb(17,0,237)" opacity="1"/>
<rect x="85" y="30" width="2.5" height="2.5" fill="rgb(17,0,237)" opacity="1"/>
<rect x="40" y="35" width="2.5" height="2.5" fill="rgb(118,0,136)" opacity="1"/>
<rect x="45" y="35" width="2.5" height="2.5" fill="rgb(88,0,166)" opacity="1"/>
<rect x="50" y="35" width="2.5" height="2.5" fill="rgb(66,0,188)" opacity="1"/>
<rect x="55" y="35" width="2.5" height="2.5" fill="rgb(59,0,195)" opacity="1"/>
<rect x="60" y="35" width="2.5" height="2.5" fill="rgb(38,0,216)" opacity="1"/>
<rect x="65" y="35" width="2.5" height="2.5" fill="rgb(31,0,223)" opacity="1"/>
<rect x="70" y="35" width="2.5" height="2.5" fill="rgb(26,0,228)" opacity="1"/>
<rect x="75" y="35" width="2.5" height="2.5" fill="rgb(20,0,234)" opacity="1"/>
<rect x="80" y="35" width="2.5" height="2.5" fill="rgb(20,0,234)" opacity="1"/>
<rect x="85" y="35" width="2.5" height="2.5" fill="rgb(18,0,236)" opacity="1"/>
<rect x="45" y="40" width="2.5" height="2.5" fill="rgb(192,0,62)" opacity="1"/>
<rect x="50" y="40" width="2.5" height="2.5" fill="rgb(140,0,114)" opacity="1"/>
<rect x="55" y="40" width="2.5" height="2.5" fill="rgb(114,0,140)" opacity="1"/>
<rect x="60" y="40" width="2.5" height="2.5" fill="rgb(64,0,190)" opacity="1"/>
<rect x="65" y="40" width="2.5" height="2.5" fill="rgb(46,0,208)" opacity="1"/>
<rect x="70" y="40" width="2.5" height="2.5" fill="rgb(36,0,218)" opacity="1"/>
<rect x="75" y="40" width="2.5" height="2.5" fill="rgb(29,0,225)" opacity="1"/>
<rect x="80" y="40" width="2.5" height="2.5" fill="rgb(25,0,229)" opacity="1"/>
<rect x="85" y="40" width="2.5" height="2.5" fill="rgb(19,0,235)" opacity="1"/>
<rect x="50" y="45" width="2.5" height="2.5" fill="rgb(205,0,49)" opacity="1"/>
<rect x="55" y="45" width="2.5" height="2.5" fill="rgb(163,0,91)" opacity="1"/>
<rect x="60" y="45" width="2.5" height="2.5" fill="rgb(91,0,163)" opacity="1"/>
<rect x="65" y="45" width="2.5" height="2.5" fill="rgb(61,0,193)" opacity="1"/>
<rect x="70" y="45" width="2.5" height="2.5" fill="rgb(45,0,209)" opacity="1"/>
<rect x="75" y="45" width="2.5" height="2.5" fill="rgb(33,0,221)" opacity="1"/>
<rect x="80" y="45" width="2.5" height="2.5" fill="rgb(26,0,228)" opacity="1"/>
<rect x="85" y="45" width="2.5" height="2.5" fill="rgb(22,0,232)" opacity="1"/>
<rect x="55" y="50" width="2.5" height="2.5" fill="rgb(255,0,0)" opacity="1"/>
<rect x="60" y="50" width="2.5" height="2.5" fill="rgb(130,0,124)" opacity="1"/>
<rect x="65" y="50" width="2.5" height="2.5" fill="rgb(88,0,166)" opacity="1"/>
<rect x="70" y="50" width="2.5" height="2.5" fill="rgb(57,0,197)" opacity="1"/>
<rect x="75" y="50" width="2.5" height="2.5" fill="rgb(44,0,210)" opacity="1"/>
<rect x="80" y="50" width="2.5" height="2.5" fill="rgb(31,0,223)" opacity="1"/>
<rect x="85" y="50" width="2.5" height="2.5" fill="rgb(29,0,225)" opacity="1"/>
<rect x="60" y="55" width="2.5" height="2.5" fill="rgb(161,0,93)" opacity="1"/>
<rect x="65" y="55" width="2.5" height="2.5" fill="rgb(101,0,153)" opacity="1"/>
<rect x="70" y="55" width="2.5" height="2.5" fill="rgb(68,0,186)" opacity="1"/>
<rect x="75" y="55" width="2.5" height="2.5" fill="rgb(49,0,205)" opacity="1"/>
<rect x="80" y="55" width="2.5" height="2.5" fill="rgb(36,0,218)" opacity="1"/>
<rect x="85" y="55" width="2.5" height="2.5" fill="rgb(30,0,224)" opacity="1"/>
<rect x="65" y="60" width="2.5" height="2.5" fill="rgb(174,0,80)" opacity="1"/>
<rect x="70" y="60" width="2.5" height="2.5" fill="rgb(114,0,140)" opacity="1"/>
<rect x="75" y="60" width="2.5" height="2.5" fill="rgb(73,0,181)" opacity="1"/>
<rect x="80" y="60" width="2.5" height="2.5" fill="rgb(49,0,205)" opacity="1"/>
<rect x="85" y="60" width="2.5" height="2.5" fill="rgb(40,0,214)" opacity="1"/>
<rect x="70" y="65" width="2.5" height="2.5" fill="rgb(171,0,83)" opacity="1"/>
<rect x="75" y="65" width="2.5" height="2.5" fill="rgb(117,0,137)" opacity="1"/>
<rect x="80" y="65" width="2.5" height="2.5" fill="rgb(75,0,179)" opacity="1"/>
<rect x="85" y="65" width="2.5" height="2.5" fill="rgb(48,0,206)" opacity="1"/>
<rect x="75" y="70" width="2.5" height="2.5" fill="rgb(160,0,94)" opacity="1"/>
<rect x="80" y="70" width="2.5" height="2.5" fill="rgb(110,0,144)" opacity="1"/>
<rect x="85" y="70" width="2.5" height="2.5" fill="rgb(74,0,180)" opacity="1"/>
<rect x="80" y="75" width="2.5" height="2.5" fill="rgb(181,0,73)" opacity="1"/>
<rect x="85" y="75" width="2.5" height="2.5" fill="rgb(113,0,141)" opacity="1"/>
<rect x="85" y="80" width="2.5" height="2.5" fill="rgb(191,0,63)" opacity="1"/>
<text x="95" y="5" font-size="5" fill="black">0</text>
<text x="95" y="85" font-size="5" fill="black">18</text>
<polyline points="95,10,95,80" stroke="black" stroke-width="1" fill="none" opacity="1"/>
<text x="5" y="95" font-size="5" fill="black">0</text>
<text x="85" y="95" font-size="5" fill="black">18</text>
<polyline points="10,95,80,95" stroke="black" stroke-width="1" fill="none" opacity="1"/>
</svg>