<?xml version="1.0" encoding="UTF-8" standalone="no"?>
<!DOCTYPE svg PUBLIC "-//W3C//DTD SVG 1.1//EN"
 "http://www.w3.org/Graphics/SVG/1.1/DTD/svg11.dtd">
<!-- Generated by graphviz version 2.43.0 (0)
 -->
<!-- Title: 1 Pages: 1 -->
<svg width="397pt" height="394pt"
 viewBox="0.00 0.00 396.75 394.13" xmlns="http://www.w3.org/2000/svg" xmlns:xlink="http://www.w3.org/1999/xlink">
<g id="graph0" class="graph" transform="scale(1 1) rotate(0) translate(4 390.13)">
<title>1</title>
<polygon fill="white" stroke="transparent" points="-4,4 -4,-390.13 392.75,-390.13 392.75,4 -4,4"/>
<!-- n16 -->
<g id="node1" class="node">
<title>n16</title>
<ellipse fill="none" stroke="black" cx="28.6" cy="-168.02" rx="28.7" ry="28.7"/>
<text text-anchor="middle" x="28.6" y="-164.32" font-family="Times,serif" font-size="14.00">n16</text>
</g>
<!-- n17 -->
<g id="node2" class="node">
<title>n17</title>
<ellipse fill="none" stroke="black" cx="306.66" cy="-236.85" rx="28.7" ry="28.7"/>
<text text-anchor="middle" x="306.66" y="-233.15" font-family="Times,serif" font-size="14.00">n17</text>
</g>
<!-- n16&#45;&#45;n17 -->
<g id="edge1" class="edge">
<title>n16&#45;&#45;n17</title>
<path fill="none" stroke="black" d="M56.53,-174.93C109.83,-188.12 225.46,-216.75 278.74,-229.94"/>
</g>
<!-- n15 -->
<g id="node3" class="node">
<title>n15</title>
<ellipse fill="none" stroke="black" cx="158.9" cy="-28.6" rx="28.7" ry="28.7"/>
<text text-anchor="middle" x="158.9" y="-24.9" font-family="Times,serif" font-size="14.00">n15</text>
</g>
<!-- n15&#45;&#45;n16 -->
<g id="edge3" class="edge">
<title>n15&#45;&#45;n16</title>
<path fill="none" stroke="black" d="M139.11,-49.77C114.48,-76.13 72.67,-120.86 48.15,-147.1"/>
</g>
<!-- n15&#45;&#45;n17 -->
<g id="edge2" class="edge">
<title>n15&#45;&#45;n17</title>
<path fill="none" stroke="black" d="M175.57,-52.08C204.02,-92.18 261.65,-173.4 290.06,-213.45"/>
</g>
<!-- n14 -->
<g id="node4" class="node">
<title>n14</title>
<ellipse fill="none" stroke="black" cx="143.45" cy="-353.78" rx="28.7" ry="28.7"/>
<text text-anchor="middle" x="143.45" y="-350.08" font-family="Times,serif" font-size="14.00">n14</text>
</g>
<!-- n14&#45;&#45;n16 -->
<g id="edge5" class="edge">
<title>n14&#45;&#45;n16</title>
<path fill="none" stroke="black" d="M128.2,-329.12C106.17,-293.49 65.69,-228.01 43.73,-192.49"/>
</g>
<!-- n14&#45;&#45;n17 -->
<g id="edge4" class="edge">
<title>n14&#45;&#45;n17</title>
<path fill="none" stroke="black" d="M166.83,-337.03C197.86,-314.8 252.31,-275.78 283.32,-253.57"/>
</g>
<!-- n14&#45;&#45;n15 -->
<g id="edge6" class="edge">
<title>n14&#45;&#45;n15</title>
<path fill="none" stroke="black" d="M144.81,-325.21C147.73,-263.68 154.6,-119.24 157.53,-57.45"/>
</g>
<!-- n13 -->
<g id="node5" class="node">
<title>n13</title>
<ellipse fill="none" stroke="black" cx="229.18" cy="-282.76" rx="28.7" ry="28.7"/>
<text text-anchor="middle" x="229.18" y="-279.06" font-family="Times,serif" font-size="14.00">n13</text>
</g>
<!-- n13&#45;&#45;n16 -->
<g id="edge8" class="edge">
<title>n13&#45;&#45;n16</title>
<path fill="none" stroke="black" d="M204.18,-268.46C165.64,-246.42 92.14,-204.37 53.59,-182.32"/>
</g>
<!-- n13&#45;&#45;n17 -->
<g id="edge7" class="edge">
<title>n13&#45;&#45;n17</title>
<path fill="none" stroke="black" d="M254.12,-267.98C263.06,-262.69 273.12,-256.72 282.03,-251.44"/>
</g>
<!-- n13&#45;&#45;n15 -->
<g id="edge9" class="edge">
<title>n13&#45;&#45;n15</title>
<path fill="none" stroke="black" d="M221.52,-255.08C208.01,-206.19 180.06,-105.11 166.55,-56.25"/>
</g>
<!-- n13&#45;&#45;n14 -->
<g id="edge10" class="edge">
<title>n13&#45;&#45;n14</title>
<path fill="none" stroke="black" d="M207.1,-301.05C194.4,-311.57 178.49,-324.76 165.75,-335.31"/>
</g>
<!-- n12 -->
<g id="node6" class="node">
<title>n12</title>
<ellipse fill="none" stroke="black" cx="138.44" cy="-250.57" rx="28.7" ry="28.7"/>
<text text-anchor="middle" x="138.44" y="-246.87" font-family="Times,serif" font-size="14.00">n12</text>
</g>
<!-- n12&#45;&#45;n16 -->
<g id="edge12" class="edge">
<title>n12&#45;&#45;n16</title>
<path fill="none" stroke="black" d="M115.41,-233.26C96.67,-219.18 70.33,-199.38 51.59,-185.3"/>
</g>
<!-- n12&#45;&#45;n17 -->
<g id="edge11" class="edge">
<title>n12&#45;&#45;n17</title>
<path fill="none" stroke="black" d="M166.98,-248.24C197.91,-245.72 246.99,-241.71 277.98,-239.19"/>
</g>
<!-- n12&#45;&#45;n15 -->
<g id="edge13" class="edge">
<title>n12&#45;&#45;n15</title>
<path fill="none" stroke="black" d="M141.07,-222.01C144.99,-179.5 152.32,-100.05 156.25,-57.4"/>
</g>
<!-- n12&#45;&#45;n14 -->
<g id="edge14" class="edge">
<title>n12&#45;&#45;n14</title>
<path fill="none" stroke="black" d="M139.84,-279.32C140.53,-293.64 141.37,-310.89 142.06,-325.19"/>
</g>
<!-- n12&#45;&#45;n13 -->
<g id="edge15" class="edge">
<title>n12&#45;&#45;n13</title>
<path fill="none" stroke="black" d="M165.66,-260.23C177.15,-264.3 190.49,-269.04 201.97,-273.11"/>
</g>
<!-- n11 -->
<g id="node7" class="node">
<title>n11</title>
<ellipse fill="none" stroke="black" cx="71.69" cy="-79.05" rx="28.7" ry="28.7"/>
<text text-anchor="middle" x="71.69" y="-75.35" font-family="Times,serif" font-size="14.00">n11</text>
</g>
<!-- n11&#45;&#45;n16 -->
<g id="edge17" class="edge">
<title>n11&#45;&#45;n16</title>
<path fill="none" stroke="black" d="M58.99,-105.26C53.38,-116.85 46.8,-130.43 41.2,-141.99"/>
</g>
<!-- n11&#45;&#45;n17 -->
<g id="edge16" class="edge">
<title>n11&#45;&#45;n17</title>
<path fill="none" stroke="black" d="M95.51,-95.05C140.55,-125.29 237.69,-190.53 282.77,-220.8"/>
</g>
<!-- n11&#45;&#45;n15 -->
<g id="edge18" class="edge">
<title>n11&#45;&#45;n15</title>
<path fill="none" stroke="black" d="M96.45,-64.73C108.23,-57.91 122.29,-49.78 134.08,-42.96"/>
</g>
<!-- n11&#45;&#45;n14 -->
<g id="edge19" class="edge">
<title>n11&#45;&#45;n14</title>
<path fill="none" stroke="black" d="M78.97,-106.91C92.72,-159.56 122.39,-273.14 136.15,-325.85"/>
</g>
<!-- n11&#45;&#45;n13 -->
<g id="edge20" class="edge">
<title>n11&#45;&#45;n13</title>
<path fill="none" stroke="black" d="M89.45,-102.02C119.78,-141.25 181.2,-220.7 211.48,-259.88"/>
</g>
<!-- n11&#45;&#45;n12 -->
<g id="edge21" class="edge">
<title>n11&#45;&#45;n12</title>
<path fill="none" stroke="black" d="M82.12,-105.85C94.62,-137.98 115.45,-191.51 127.97,-223.68"/>
</g>
<!-- n10 -->
<g id="node8" class="node">
<title>n10</title>
<ellipse fill="none" stroke="black" cx="347.96" cy="-143.31" rx="28.7" ry="28.7"/>
<text text-anchor="middle" x="347.96" y="-139.61" font-family="Times,serif" font-size="14.00">n10</text>
</g>
<!-- n10&#45;&#45;n16 -->
<g id="edge23" class="edge">
<title>n10&#45;&#45;n16</title>
<path fill="none" stroke="black" d="M319.34,-145.52C258.71,-150.21 117.94,-161.1 57.27,-165.8"/>
</g>
<!-- n10&#45;&#45;n17 -->
<g id="edge22" class="edge">
<title>n10&#45;&#45;n17</title>
<path fill="none" stroke="black" d="M336.23,-169.86C330.61,-182.61 323.88,-197.84 318.27,-210.55"/>
</g>
<!-- n10&#45;&#45;n15 -->
<g id="edge24" class="edge">
<title>n10&#45;&#45;n15</title>
<path fill="none" stroke="black" d="M323.24,-128.31C287.01,-106.33 219.86,-65.58 183.63,-43.6"/>
</g>
<!-- n10&#45;&#45;n14 -->
<g id="edge25" class="edge">
<title>n10&#45;&#45;n14</title>
<path fill="none" stroke="black" d="M327.98,-163.87C288.88,-204.11 202.67,-292.83 163.51,-333.14"/>
</g>
<!-- n10&#45;&#45;n13 -->
<g id="edge26" class="edge">
<title>n10&#45;&#45;n13</title>
<path fill="none" stroke="black" d="M329.4,-165.1C307.22,-191.14 270.3,-234.49 248,-260.67"/>
</g>
<!-- n10&#45;&#45;n12 -->
<g id="edge27" class="edge">
<title>n10&#45;&#45;n12</title>
<path fill="none" stroke="black" d="M322.27,-156.46C281.95,-177.1 204.26,-216.87 164.01,-237.48"/>
</g>
<!-- n10&#45;&#45;n11 -->
<g id="edge28" class="edge">
<title>n10&#45;&#45;n11</title>
<path fill="none" stroke="black" d="M319.95,-136.79C267,-124.48 152.78,-97.91 99.77,-85.58"/>
</g>
<!-- n9 -->
<g id="node9" class="node">
<title>n9</title>
<ellipse fill="none" stroke="black" cx="102.15" cy="-153.34" rx="23" ry="23"/>
<text text-anchor="middle" x="102.15" y="-149.64" font-family="Times,serif" font-size="14.00">n9</text>
</g>
<!-- n9&#45;&#45;n16 -->
<g id="edge30" class="edge">
<title>n9&#45;&#45;n16</title>
<path fill="none" stroke="black" d="M79.68,-157.82C72.42,-159.27 64.27,-160.9 56.65,-162.42"/>
</g>
<!-- n9&#45;&#45;n17 -->
<g id="edge29" class="edge">
<title>n9&#45;&#45;n17</title>
<path fill="none" stroke="black" d="M123.27,-161.96C160.72,-177.26 238.71,-209.1 279.87,-225.91"/>
</g>
<!-- n9&#45;&#45;n15 -->
<g id="edge31" class="edge">
<title>n9&#45;&#45;n15</title>
<path fill="none" stroke="black" d="M111.65,-132.46C121.37,-111.1 136.5,-77.85 147.01,-54.75"/>
</g>
<!-- n9&#45;&#45;n14 -->
<g id="edge32" class="edge">
<title>n9&#45;&#45;n14</title>
<path fill="none" stroke="black" d="M106.81,-175.94C114.38,-212.7 129.35,-285.34 137.62,-325.48"/>
</g>
<!-- n9&#45;&#45;n13 -->
<g id="edge33" class="edge">
<title>n9&#45;&#45;n13</title>
<path fill="none" stroke="black" d="M118.24,-169.73C141.34,-193.27 183.88,-236.61 209.04,-262.25"/>
</g>
<!-- n9&#45;&#45;n12 -->
<g id="edge34" class="edge">
<title>n9&#45;&#45;n12</title>
<path fill="none" stroke="black" d="M110.2,-174.92C115.55,-189.24 122.61,-208.15 128.33,-223.49"/>
</g>
<!-- n9&#45;&#45;n11 -->
<g id="edge35" class="edge">
<title>n9&#45;&#45;n11</title>
<path fill="none" stroke="black" d="M93.5,-132.25C90.13,-124.01 86.21,-114.47 82.64,-105.77"/>
</g>
<!-- n9&#45;&#45;n10 -->
<g id="edge36" class="edge">
<title>n9&#45;&#45;n10</title>
<path fill="none" stroke="black" d="M125.28,-152.4C170.33,-150.56 269.77,-146.5 319.08,-144.49"/>
</g>
<!-- n8 -->
<g id="node10" class="node">
<title>n8</title>
<ellipse fill="none" stroke="black" cx="247.06" cy="-44.01" rx="23" ry="23"/>
<text text-anchor="middle" x="247.06" y="-40.31" font-family="Times,serif" font-size="14.00">n8</text>
</g>
<!-- n8&#45;&#45;n16 -->
<g id="edge38" class="edge">
<title>n8&#45;&#45;n16</title>
<path fill="none" stroke="black" d="M226.9,-55.46C186.87,-78.18 97.44,-128.94 53.68,-153.78"/>
</g>
<!-- n8&#45;&#45;n17 -->
<g id="edge37" class="edge">
<title>n8&#45;&#45;n17</title>
<path fill="none" stroke="black" d="M253.78,-65.76C264.68,-101.02 286.19,-170.62 298.14,-209.29"/>
</g>
<!-- n8&#45;&#45;n15 -->
<g id="edge39" class="edge">
<title>n8&#45;&#45;n15</title>
<path fill="none" stroke="black" d="M224.36,-40.04C213.03,-38.06 199.22,-35.65 187.21,-33.55"/>
</g>
<!-- n8&#45;&#45;n14 -->
<g id="edge40" class="edge">
<title>n8&#45;&#45;n14</title>
<path fill="none" stroke="black" d="M239.77,-65.8C221.35,-120.88 172.92,-265.67 152.62,-326.38"/>
</g>
<!-- n8&#45;&#45;n13 -->
<g id="edge41" class="edge">
<title>n8&#45;&#45;n13</title>
<path fill="none" stroke="black" d="M245.34,-66.91C242.07,-110.67 234.92,-206.12 231.33,-254.07"/>
</g>
<!-- n8&#45;&#45;n12 -->
<g id="edge42" class="edge">
<title>n8&#45;&#45;n12</title>
<path fill="none" stroke="black" d="M236.45,-64.2C216.54,-102.06 173.62,-183.67 151.79,-225.19"/>
</g>
<!-- n8&#45;&#45;n11 -->
<g id="edge43" class="edge">
<title>n8&#45;&#45;n11</title>
<path fill="none" stroke="black" d="M224.49,-48.52C192.67,-54.88 134.63,-66.48 99.97,-73.4"/>
</g>
<!-- n8&#45;&#45;n10 -->
<g id="edge44" class="edge">
<title>n8&#45;&#45;n10</title>
<path fill="none" stroke="black" d="M263.72,-60.41C281.18,-77.6 308.65,-104.62 327.43,-123.11"/>
</g>
<!-- n8&#45;&#45;n9 -->
<g id="edge45" class="edge">
<title>n8&#45;&#45;n9</title>
<path fill="none" stroke="black" d="M228.71,-57.86C200.83,-78.89 148.14,-118.64 120.36,-139.61"/>
</g>
<!-- n7 -->
<g id="node11" class="node">
<title>n7</title>
<ellipse fill="none" stroke="black" cx="171.29" cy="-95.69" rx="23" ry="23"/>
<text text-anchor="middle" x="171.29" y="-91.99" font-family="Times,serif" font-size="14.00">n7</text>
</g>
<!-- n7&#45;&#45;n16 -->
<g id="edge47" class="edge">
<title>n7&#45;&#45;n16</title>
<path fill="none" stroke="black" d="M150.85,-106.06C125.42,-118.95 81.98,-140.96 54.32,-154.98"/>
</g>
<!-- n7&#45;&#45;n17 -->
<g id="edge46" class="edge">
<title>n7&#45;&#45;n17</title>
<path fill="none" stroke="black" d="M187.08,-112.16C211.77,-137.91 259.48,-187.66 286.58,-215.91"/>
</g>
<!-- n7&#45;&#45;n15 -->
<g id="edge48" class="edge">
<title>n7&#45;&#45;n15</title>
<path fill="none" stroke="black" d="M167.1,-72.98C166.14,-67.81 165.12,-62.25 164.13,-56.88"/>
</g>
<!-- n7&#45;&#45;n14 -->
<g id="edge49" class="edge">
<title>n7&#45;&#45;n14</title>
<path fill="none" stroke="black" d="M168.82,-118.6C163.74,-165.72 152.12,-273.45 146.54,-325.11"/>
</g>
<!-- n7&#45;&#45;n13 -->
<g id="edge50" class="edge">
<title>n7&#45;&#45;n13</title>
<path fill="none" stroke="black" d="M178.05,-117.52C188.63,-151.74 209.12,-217.94 220.69,-255.33"/>
</g>
<!-- n7&#45;&#45;n12 -->
<g id="edge51" class="edge">
<title>n7&#45;&#45;n12</title>
<path fill="none" stroke="black" d="M166.51,-118.21C160.66,-145.82 150.74,-192.6 144.39,-222.51"/>
</g>
<!-- n7&#45;&#45;n11 -->
<g id="edge52" class="edge">
<title>n7&#45;&#45;n11</title>
<path fill="none" stroke="black" d="M148.69,-91.92C134.23,-89.5 115.35,-86.35 99.9,-83.76"/>
</g>
<!-- n7&#45;&#45;n10 -->
<g id="edge53" class="edge">
<title>n7&#45;&#45;n10</title>
<path fill="none" stroke="black" d="M193.31,-101.63C225.41,-110.28 285.03,-126.35 320.13,-135.81"/>
</g>
<!-- n7&#45;&#45;n9 -->
<g id="edge54" class="edge">
<title>n7&#45;&#45;n9</title>
<path fill="none" stroke="black" d="M153.49,-110.54C143.08,-119.21 130.01,-130.11 119.66,-138.74"/>
</g>
<!-- n7&#45;&#45;n8 -->
<g id="edge55" class="edge">
<title>n7&#45;&#45;n8</title>
<path fill="none" stroke="black" d="M190.41,-82.65C201.98,-74.76 216.68,-64.73 228.21,-56.87"/>
</g>
<!-- n6 -->
<g id="node12" class="node">
<title>n6</title>
<ellipse fill="none" stroke="black" cx="38.72" cy="-245.6" rx="23" ry="23"/>
<text text-anchor="middle" x="38.72" y="-241.9" font-family="Times,serif" font-size="14.00">n6</text>
</g>
<!-- n6&#45;&#45;n16 -->
<g id="edge57" class="edge">
<title>n6&#45;&#45;n16</title>
<path fill="none" stroke="black" d="M35.74,-222.74C34.66,-214.52 33.44,-205.14 32.31,-196.49"/>
</g>
<!-- n6&#45;&#45;n17 -->
<g id="edge56" class="edge">
<title>n6&#45;&#45;n17</title>
<path fill="none" stroke="black" d="M61.56,-244.86C110.28,-243.26 224.32,-239.54 277.89,-237.79"/>
</g>
<!-- n6&#45;&#45;n15 -->
<g id="edge58" class="edge">
<title>n6&#45;&#45;n15</title>
<path fill="none" stroke="black" d="M49.81,-225.58C71.77,-185.91 120.77,-97.45 144.91,-53.86"/>
</g>
<!-- n6&#45;&#45;n14 -->
<g id="edge59" class="edge">
<title>n6&#45;&#45;n14</title>
<path fill="none" stroke="black" d="M54.62,-262.03C73.05,-281.07 103.43,-312.45 123.44,-333.12"/>
</g>
<!-- n6&#45;&#45;n13 -->
<g id="edge60" class="edge">
<title>n6&#45;&#45;n13</title>
<path fill="none" stroke="black" d="M61.31,-250.01C96.2,-256.82 163.09,-269.87 201.05,-277.28"/>
</g>
<!-- n6&#45;&#45;n12 -->
<g id="edge61" class="edge">
<title>n6&#45;&#45;n12</title>
<path fill="none" stroke="black" d="M61.85,-246.75C76.12,-247.47 94.53,-248.38 109.73,-249.14"/>
</g>
<!-- n6&#45;&#45;n11 -->
<g id="edge62" class="edge">
<title>n6&#45;&#45;n11</title>
<path fill="none" stroke="black" d="M43.16,-223.14C49.11,-193.13 59.63,-139.95 66.1,-107.27"/>
</g>
<!-- n6&#45;&#45;n10 -->
<g id="edge63" class="edge">
<title>n6&#45;&#45;n10</title>
<path fill="none" stroke="black" d="M60.46,-238.41C115.45,-220.22 260,-172.4 320.6,-152.36"/>
</g>
<!-- n6&#45;&#45;n9 -->
<g id="edge64" class="edge">
<title>n6&#45;&#45;n9</title>
<path fill="none" stroke="black" d="M51.86,-226.49C62.82,-210.55 78.35,-187.96 89.24,-172.12"/>
</g>
<!-- n6&#45;&#45;n8 -->
<g id="edge65" class="edge">
<title>n6&#45;&#45;n8</title>
<path fill="none" stroke="black" d="M55.07,-229.78C93.92,-192.19 191.44,-97.84 230.5,-60.04"/>
</g>
<!-- n6&#45;&#45;n7 -->
<g id="edge66" class="edge">
<title>n6&#45;&#45;n7</title>
<path fill="none" stroke="black" d="M53.92,-228.41C79.36,-199.64 130.26,-142.09 155.85,-113.15"/>
</g>
<!-- n5 -->
<g id="node13" class="node">
<title>n5</title>
<ellipse fill="none" stroke="black" cx="366" cy="-231.11" rx="23" ry="23"/>
<text text-anchor="middle" x="366" y="-227.41" font-family="Times,serif" font-size="14.00">n5</text>
</g>
<!-- n5&#45;&#45;n16 -->
<g id="edge68" class="edge">
<title>n5&#45;&#45;n16</title>
<path fill="none" stroke="black" d="M343.6,-226.93C284.14,-215.81 122.39,-185.56 56.8,-173.29"/>
</g>
<!-- n5&#45;&#45;n17 -->
<g id="edge67" class="edge">
<title>n5&#45;&#45;n17</title>
<path fill="none" stroke="black" d="M343.23,-233.31C340.61,-233.57 337.92,-233.83 335.24,-234.09"/>
</g>
<!-- n5&#45;&#45;n15 -->
<g id="edge69" class="edge">
<title>n5&#45;&#45;n15</title>
<path fill="none" stroke="black" d="M349.4,-214.88C311.88,-178.18 220.57,-88.9 179.51,-48.74"/>
</g>
<!-- n5&#45;&#45;n14 -->
<g id="edge70" class="edge">
<title>n5&#45;&#45;n14</title>
<path fill="none" stroke="black" d="M345.86,-242.22C305.2,-264.63 213.4,-315.23 168.77,-339.83"/>
</g>
<!-- n5&#45;&#45;n13 -->
<g id="edge71" class="edge">
<title>n5&#45;&#45;n13</title>
<path fill="none" stroke="black" d="M344.62,-239.19C320.72,-248.21 281.98,-262.83 256.05,-272.62"/>
</g>
<!-- n5&#45;&#45;n12 -->
<g id="edge72" class="edge">
<title>n5&#45;&#45;n12</title>
<path fill="none" stroke="black" d="M342.93,-233.09C301.12,-236.66 212.95,-244.2 167.26,-248.11"/>
</g>
<!-- n5&#45;&#45;n11 -->
<g id="edge73" class="edge">
<title>n5&#45;&#45;n11</title>
<path fill="none" stroke="black" d="M345.77,-220.66C293.7,-193.76 155.07,-122.13 97.41,-92.34"/>
</g>
<!-- n5&#45;&#45;n10 -->
<g id="edge74" class="edge">
<title>n5&#45;&#45;n10</title>
<path fill="none" stroke="black" d="M361.36,-208.5C359.04,-197.22 356.21,-183.47 353.75,-171.5"/>
</g>
<!-- n5&#45;&#45;n9 -->
<g id="edge75" class="edge">
<title>n5&#45;&#45;n9</title>
<path fill="none" stroke="black" d="M343.96,-224.62C294.29,-209.98 174.1,-174.55 124.32,-159.87"/>
</g>
<!-- n5&#45;&#45;n8 -->
<g id="edge76" class="edge">
<title>n5&#45;&#45;n8</title>
<path fill="none" stroke="black" d="M353.72,-211.8C330.87,-175.85 282.07,-99.09 259.27,-63.23"/>
</g>
<!-- n5&#45;&#45;n7 -->
<g id="edge77" class="edge">
<title>n5&#45;&#45;n7</title>
<path fill="none" stroke="black" d="M346.98,-217.88C309.66,-191.93 227.26,-134.62 190.11,-108.78"/>
</g>
<!-- n5&#45;&#45;n6 -->
<g id="edge78" class="edge">
<title>n5&#45;&#45;n6</title>
<path fill="none" stroke="black" d="M343.25,-232.12C283.38,-234.77 121.95,-241.92 61.76,-244.58"/>
</g>
<!-- n4 -->
<g id="node14" class="node">
<title>n4</title>
<ellipse fill="none" stroke="black" cx="305.6" cy="-327.14" rx="23" ry="23"/>
<text text-anchor="middle" x="305.6" y="-323.44" font-family="Times,serif" font-size="14.00">n4</text>
</g>
<!-- n4&#45;&#45;n16 -->
<g id="edge80" class="edge">
<title>n4&#45;&#45;n16</title>
<path fill="none" stroke="black" d="M285.68,-315.69C236.18,-287.26 107.7,-213.46 53.4,-182.27"/>
</g>
<!-- n4&#45;&#45;n17 -->
<g id="edge79" class="edge">
<title>n4&#45;&#45;n17</title>
<path fill="none" stroke="black" d="M305.87,-304.35C306.01,-292.55 306.18,-278.01 306.32,-265.45"/>
</g>
<!-- n4&#45;&#45;n15 -->
<g id="edge81" class="edge">
<title>n4&#45;&#45;n15</title>
<path fill="none" stroke="black" d="M295.52,-306.62C269.56,-253.79 200.46,-113.17 171.72,-54.68"/>
</g>
<!-- n4&#45;&#45;n14 -->
<g id="edge82" class="edge">
<title>n4&#45;&#45;n14</title>
<path fill="none" stroke="black" d="M283.06,-330.84C253.99,-335.62 203.44,-343.93 171.8,-349.12"/>
</g>
<!-- n4&#45;&#45;n13 -->
<g id="edge83" class="edge">
<title>n4&#45;&#45;n13</title>
<path fill="none" stroke="black" d="M285.92,-315.71C276.19,-310.06 264.35,-303.18 254,-297.18"/>
</g>
<!-- n4&#45;&#45;n12 -->
<g id="edge84" class="edge">
<title>n4&#45;&#45;n12</title>
<path fill="none" stroke="black" d="M284.77,-317.6C254.31,-303.64 197.66,-277.69 164.49,-262.5"/>
</g>
<!-- n4&#45;&#45;n11 -->
<g id="edge85" class="edge">
<title>n4&#45;&#45;n11</title>
<path fill="none" stroke="black" d="M289.89,-310.47C248.61,-266.69 137.13,-148.46 91.53,-100.1"/>
</g>
<!-- n4&#45;&#45;n10 -->
<g id="edge86" class="edge">
<title>n4&#45;&#45;n10</title>
<path fill="none" stroke="black" d="M310.71,-304.96C318.43,-271.44 333.07,-207.91 341.52,-171.26"/>
</g>
<!-- n4&#45;&#45;n9 -->
<g id="edge87" class="edge">
<title>n4&#45;&#45;n9</title>
<path fill="none" stroke="black" d="M288.26,-312.32C249.82,-279.48 157.85,-200.92 119.45,-168.12"/>
</g>
<!-- n4&#45;&#45;n8 -->
<g id="edge88" class="edge">
<title>n4&#45;&#45;n8</title>
<path fill="none" stroke="black" d="M300.91,-304.45C289.92,-251.3 262.62,-119.28 251.69,-66.42"/>
</g>
<!-- n4&#45;&#45;n7 -->
<g id="edge89" class="edge">
<title>n4&#45;&#45;n7</title>
<path fill="none" stroke="black" d="M294.15,-307.41C268.78,-263.68 208.06,-159.06 182.71,-115.38"/>
</g>
<!-- n4&#45;&#45;n6 -->
<g id="edge90" class="edge">
<title>n4&#45;&#45;n6</title>
<path fill="none" stroke="black" d="M283.76,-320.47C233.59,-305.14 110.58,-267.56 60.48,-252.25"/>
</g>
<!-- n4&#45;&#45;n5 -->
<g id="edge91" class="edge">
<title>n4&#45;&#45;n5</title>
<path fill="none" stroke="black" d="M317.82,-307.71C328.3,-291.05 343.32,-267.17 353.8,-250.52"/>
</g>
<!-- n3 -->
<g id="node15" class="node">
<title>n3</title>
<ellipse fill="none" stroke="black" cx="222.03" cy="-363.38" rx="23" ry="23"/>
<text text-anchor="middle" x="222.03" y="-359.68" font-family="Times,serif" font-size="14.00">n3</text>
</g>
<!-- n3&#45;&#45;n16 -->
<g id="edge93" class="edge">
<title>n3&#45;&#45;n16</title>
<path fill="none" stroke="black" d="M205.87,-347.06C170.73,-311.57 87.43,-227.44 48.85,-188.48"/>
</g>
<!-- n3&#45;&#45;n17 -->
<g id="edge92" class="edge">
<title>n3&#45;&#45;n17</title>
<path fill="none" stroke="black" d="M234.7,-344.44C249.64,-322.1 274.49,-284.95 290.72,-260.68"/>
</g>
<!-- n3&#45;&#45;n15 -->
<g id="edge94" class="edge">
<title>n3&#45;&#45;n15</title>
<path fill="none" stroke="black" d="M217.79,-340.89C206.65,-281.81 176.57,-122.26 164.26,-57"/>
</g>
<!-- n3&#45;&#45;n14 -->
<g id="edge95" class="edge">
<title>n3&#45;&#45;n14</title>
<path fill="none" stroke="black" d="M199.3,-360.6C190.78,-359.56 180.99,-358.37 172,-357.27"/>
</g>
<!-- n3&#45;&#45;n13 -->
<g id="edge96" class="edge">
<title>n3&#45;&#45;n13</title>
<path fill="none" stroke="black" d="M224.06,-340.49C224.86,-331.46 225.79,-320.99 226.64,-311.46"/>
</g>
<!-- n3&#45;&#45;n12 -->
<g id="edge97" class="edge">
<title>n3&#45;&#45;n12</title>
<path fill="none" stroke="black" d="M208.42,-345C193.98,-325.52 171.15,-294.72 155.52,-273.62"/>
</g>
<!-- n3&#45;&#45;n11 -->
<g id="edge98" class="edge">
<title>n3&#45;&#45;n11</title>
<path fill="none" stroke="black" d="M211.22,-342.93C184.36,-292.13 114.62,-160.25 85.15,-104.51"/>
</g>
<!-- n3&#45;&#45;n10 -->
<g id="edge99" class="edge">
<title>n3&#45;&#45;n10</title>
<path fill="none" stroke="black" d="M233.43,-343.46C256.44,-303.25 308.38,-212.48 333.63,-168.34"/>
</g>
<!-- n3&#45;&#45;n9 -->
<g id="edge100" class="edge">
<title>n3&#45;&#45;n9</title>
<path fill="none" stroke="black" d="M210.75,-343.62C187.91,-303.59 136.38,-213.32 113.49,-173.2"/>
</g>
<!-- n3&#45;&#45;n8 -->
<g id="edge101" class="edge">
<title>n3&#45;&#45;n8</title>
<path fill="none" stroke="black" d="M223.81,-340.67C228.41,-281.96 240.66,-125.64 245.27,-66.82"/>
</g>
<!-- n3&#45;&#45;n7 -->
<g id="edge102" class="edge">
<title>n3&#45;&#45;n7</title>
<path fill="none" stroke="black" d="M217.79,-341.02C208.24,-290.63 185.13,-168.69 175.55,-118.18"/>
</g>
<!-- n3&#45;&#45;n6 -->
<g id="edge103" class="edge">
<title>n3&#45;&#45;n6</title>
<path fill="none" stroke="black" d="M202.76,-351C167.55,-328.38 93.23,-280.62 58.01,-257.99"/>
</g>
<!-- n3&#45;&#45;n5 -->
<g id="edge104" class="edge">
<title>n3&#45;&#45;n5</title>
<path fill="none" stroke="black" d="M238.83,-347.95C266.42,-322.6 321.05,-272.41 348.87,-246.86"/>
</g>
<!-- n3&#45;&#45;n4 -->
<g id="edge105" class="edge">
<title>n3&#45;&#45;n4</title>
<path fill="none" stroke="black" d="M243.12,-354.23C255.79,-348.74 271.85,-341.77 284.52,-336.28"/>
</g>
<!-- n2 -->
<g id="node16" class="node">
<title>n2</title>
<ellipse fill="none" stroke="black" cx="240.99" cy="-161.55" rx="23" ry="23"/>
<text text-anchor="middle" x="240.99" y="-157.85" font-family="Times,serif" font-size="14.00">n2</text>
</g>
<!-- n2&#45;&#45;n16 -->
<g id="edge107" class="edge">
<title>n2&#45;&#45;n16</title>
<path fill="none" stroke="black" d="M217.85,-162.25C178.83,-163.44 100.01,-165.84 57.44,-167.14"/>
</g>
<!-- n2&#45;&#45;n17 -->
<g id="edge106" class="edge">
<title>n2&#45;&#45;n17</title>
<path fill="none" stroke="black" d="M256.22,-179.01C265.61,-189.79 277.74,-203.69 287.75,-215.17"/>
</g>
<!-- n2&#45;&#45;n15 -->
<g id="edge108" class="edge">
<title>n2&#45;&#45;n15</title>
<path fill="none" stroke="black" d="M228.87,-141.93C214.34,-118.38 189.95,-78.88 174.14,-53.28"/>
</g>
<!-- n2&#45;&#45;n14 -->
<g id="edge109" class="edge">
<title>n2&#45;&#45;n14</title>
<path fill="none" stroke="black" d="M230.55,-182.12C212.61,-217.47 175.98,-289.66 156.43,-328.2"/>
</g>
<!-- n2&#45;&#45;n13 -->
<g id="edge110" class="edge">
<title>n2&#45;&#45;n13</title>
<path fill="none" stroke="black" d="M238.77,-184.35C236.84,-204.1 234.05,-232.77 231.97,-254.08"/>
</g>
<!-- n2&#45;&#45;n12 -->
<g id="edge111" class="edge">
<title>n2&#45;&#45;n12</title>
<path fill="none" stroke="black" d="M223.59,-176.65C206.1,-191.83 179.1,-215.27 160.21,-231.67"/>
</g>
<!-- n2&#45;&#45;n11 -->
<g id="edge112" class="edge">
<title>n2&#45;&#45;n11</title>
<path fill="none" stroke="black" d="M220.23,-151.43C189.32,-136.37 131.26,-108.08 97.61,-91.68"/>
</g>
<!-- n2&#45;&#45;n10 -->
<g id="edge113" class="edge">
<title>n2&#45;&#45;n10</title>
<path fill="none" stroke="black" d="M263.41,-157.72C279.71,-154.94 301.89,-151.16 319.45,-148.17"/>
</g>
<!-- n2&#45;&#45;n9 -->
<g id="edge114" class="edge">
<title>n2&#45;&#45;n9</title>
<path fill="none" stroke="black" d="M218.06,-160.19C192.34,-158.67 150.85,-156.22 125.11,-154.7"/>
</g>
<!-- n2&#45;&#45;n8 -->
<g id="edge115" class="edge">
<title>n2&#45;&#45;n8</title>
<path fill="none" stroke="black" d="M242.17,-138.61C243.24,-117.9 244.81,-87.59 245.88,-66.9"/>
</g>
<!-- n2&#45;&#45;n7 -->
<g id="edge116" class="edge">
<title>n2&#45;&#45;n7</title>
<path fill="none" stroke="black" d="M224.12,-145.61C213.16,-135.25 198.93,-121.81 188.01,-111.49"/>
</g>
<!-- n2&#45;&#45;n6 -->
<g id="edge117" class="edge">
<title>n2&#45;&#45;n6</title>
<path fill="none" stroke="black" d="M219.72,-170.38C180.87,-186.53 98.86,-220.61 60,-236.76"/>
</g>
<!-- n2&#45;&#45;n5 -->
<g id="edge118" class="edge">
<title>n2&#45;&#45;n5</title>
<path fill="none" stroke="black" d="M261.07,-172.72C284.4,-185.71 322.66,-207 345.97,-219.97"/>
</g>
<!-- n2&#45;&#45;n4 -->
<g id="edge119" class="edge">
<title>n2&#45;&#45;n4</title>
<path fill="none" stroke="black" d="M249.3,-182.86C261.71,-214.65 284.93,-274.16 297.32,-305.91"/>
</g>
<!-- n2&#45;&#45;n3 -->
<g id="edge120" class="edge">
<title>n2&#45;&#45;n3</title>
<path fill="none" stroke="black" d="M238.85,-184.31C235.2,-223.17 227.81,-301.89 224.16,-340.7"/>
</g>
<!-- n1 -->
<g id="node17" class="node">
<title>n1</title>
<ellipse fill="none" stroke="black" cx="309.92" cy="-80.31" rx="23" ry="23"/>
<text text-anchor="middle" x="309.92" y="-76.61" font-family="Times,serif" font-size="14.00">n1</text>
</g>
<!-- n1&#45;&#45;n16 -->
<g id="edge122" class="edge">
<title>n1&#45;&#45;n16</title>
<path fill="none" stroke="black" d="M287.84,-87.19C237.07,-103.02 112.08,-141.99 56.28,-159.39"/>
</g>
<!-- n1&#45;&#45;n17 -->
<g id="edge121" class="edge">
<title>n1&#45;&#45;n17</title>
<path fill="none" stroke="black" d="M309.45,-103.07C308.87,-130.88 307.88,-177.96 307.25,-208.21"/>
</g>
<!-- n1&#45;&#45;n15 -->
<g id="edge123" class="edge">
<title>n1&#45;&#45;n15</title>
<path fill="none" stroke="black" d="M288.28,-72.9C261.37,-63.68 215.4,-47.94 186.12,-37.92"/>
</g>
<!-- n1&#45;&#45;n14 -->
<g id="edge124" class="edge">
<title>n1&#45;&#45;n14</title>
<path fill="none" stroke="black" d="M297.95,-99.97C268.2,-148.84 190.99,-275.68 158.36,-329.29"/>
</g>
<!-- n1&#45;&#45;n13 -->
<g id="edge125" class="edge">
<title>n1&#45;&#45;n13</title>
<path fill="none" stroke="black" d="M301.43,-101.59C286.61,-138.75 256.06,-215.36 239.84,-256.03"/>
</g>
<!-- n1&#45;&#45;n12 -->
<g id="edge126" class="edge">
<title>n1&#45;&#45;n12</title>
<path fill="none" stroke="black" d="M293.48,-96.63C261.96,-127.93 193.12,-196.28 158.77,-230.38"/>
</g>
<!-- n1&#45;&#45;n11 -->
<g id="edge127" class="edge">
<title>n1&#45;&#45;n11</title>
<path fill="none" stroke="black" d="M287.08,-80.19C243.41,-79.96 148.16,-79.45 100.32,-79.2"/>
</g>
<!-- n1&#45;&#45;n10 -->
<g id="edge128" class="edge">
<title>n1&#45;&#45;n10</title>
<path fill="none" stroke="black" d="M321.75,-99.89C325.32,-105.82 329.3,-112.4 333.05,-118.61"/>
</g>
<!-- n1&#45;&#45;n9 -->
<g id="edge129" class="edge">
<title>n1&#45;&#45;n9</title>
<path fill="none" stroke="black" d="M288.08,-87.98C248.07,-102.05 163.49,-131.78 123.7,-145.76"/>
</g>
<!-- n1&#45;&#45;n8 -->
<g id="edge130" class="edge">
<title>n1&#45;&#45;n8</title>
<path fill="none" stroke="black" d="M290.03,-68.82C282.69,-64.59 274.38,-59.79 267.04,-55.55"/>
</g>
<!-- n1&#45;&#45;n7 -->
<g id="edge131" class="edge">
<title>n1&#45;&#45;n7</title>
<path fill="none" stroke="black" d="M287.03,-82.85C261.34,-85.7 219.92,-90.3 194.22,-93.15"/>
</g>
<!-- n1&#45;&#45;n6 -->
<g id="edge132" class="edge">
<title>n1&#45;&#45;n6</title>
<path fill="none" stroke="black" d="M290.42,-92.19C240.5,-122.62 108.53,-203.05 58.41,-233.6"/>
</g>
<!-- n1&#45;&#45;n5 -->
<g id="edge133" class="edge">
<title>n1&#45;&#45;n5</title>
<path fill="none" stroke="black" d="M317.95,-101.91C328.62,-130.58 347.33,-180.9 357.98,-209.55"/>
</g>
<!-- n1&#45;&#45;n4 -->
<g id="edge134" class="edge">
<title>n1&#45;&#45;n4</title>
<path fill="none" stroke="black" d="M309.52,-103.08C308.7,-149.99 306.83,-256.89 306.01,-304.06"/>
</g>
<!-- n1&#45;&#45;n3 -->
<g id="edge135" class="edge">
<title>n1&#45;&#45;n3</title>
<path fill="none" stroke="black" d="M303.17,-102.05C286.81,-154.74 245.19,-288.8 228.81,-341.56"/>
</g>
<!-- n1&#45;&#45;n2 -->
<g id="edge136" class="edge">
<title>n1&#45;&#45;n2</title>
<path fill="none" stroke="black" d="M294.96,-97.93C283.4,-111.56 267.47,-130.34 255.91,-143.95"/>
</g>
<!-- n0 -->
<g id="node18" class="node">
<title>n0</title>
<ellipse fill="none" stroke="black" cx="75.89" cy="-313.8" rx="23" ry="23"/>
<text text-anchor="middle" x="75.89" y="-310.1" font-family="Times,serif" font-size="14.00">n0</text>
</g>
<!-- n0&#45;&#45;n16 -->
<g id="edge138" class="edge">
<title>n0&#45;&#45;n16</title>
<path fill="none" stroke="black" d="M68.81,-291.97C60.46,-266.24 46.58,-223.43 37.5,-195.47"/>
</g>
<!-- n0&#45;&#45;n17 -->
<g id="edge137" class="edge">
<title>n0&#45;&#45;n17</title>
<path fill="none" stroke="black" d="M97.6,-306.56C139.79,-292.49 232.76,-261.49 279.17,-246.01"/>
</g>
<!-- n0&#45;&#45;n15 -->
<g id="edge139" class="edge">
<title>n0&#45;&#45;n15</title>
<path fill="none" stroke="black" d="M82.27,-291.89C97.19,-240.63 134.36,-112.94 150.83,-56.35"/>
</g>
<!-- n0&#45;&#45;n14 -->
<g id="edge140" class="edge">
<title>n0&#45;&#45;n14</title>
<path fill="none" stroke="black" d="M95.79,-325.58C102.96,-329.82 111.13,-334.65 118.65,-339.11"/>
</g>
<!-- n0&#45;&#45;n13 -->
<g id="edge141" class="edge">
<title>n0&#45;&#45;n13</title>
<path fill="none" stroke="black" d="M98.51,-309.22C125.74,-303.7 171.49,-294.44 200.99,-288.47"/>
</g>
<!-- n0&#45;&#45;n12 -->
<g id="edge142" class="edge">
<title>n0&#45;&#45;n12</title>
<path fill="none" stroke="black" d="M92,-297.51C99.96,-289.46 109.66,-279.67 118.12,-271.11"/>
</g>
<!-- n0&#45;&#45;n11 -->
<g id="edge143" class="edge">
<title>n0&#45;&#45;n11</title>
<path fill="none" stroke="black" d="M75.48,-290.86C74.71,-247.83 73.05,-155.08 72.21,-107.89"/>
</g>
<!-- n0&#45;&#45;n10 -->
<g id="edge144" class="edge">
<title>n0&#45;&#45;n10</title>
<path fill="none" stroke="black" d="M95.46,-301.53C144.07,-271.07 270.26,-192 323.59,-158.57"/>
</g>
<!-- n0&#45;&#45;n9 -->
<g id="edge145" class="edge">
<title>n0&#45;&#45;n9</title>
<path fill="none" stroke="black" d="M79.6,-291.15C84.6,-260.57 93.47,-206.39 98.46,-175.87"/>
</g>
<!-- n0&#45;&#45;n8 -->
<g id="edge146" class="edge">
<title>n0&#45;&#45;n8</title>
<path fill="none" stroke="black" d="M88.2,-294.39C119.78,-244.62 203.4,-112.82 234.86,-63.24"/>
</g>
<!-- n0&#45;&#45;n7 -->
<g id="edge147" class="edge">
<title>n0&#45;&#45;n7</title>
<path fill="none" stroke="black" d="M85.04,-292.88C103.27,-251.2 143.96,-158.18 162.17,-116.54"/>
</g>
<!-- n0&#45;&#45;n6 -->
<g id="edge148" class="edge">
<title>n0&#45;&#45;n6</title>
<path fill="none" stroke="black" d="M64.94,-293.7C60.14,-284.9 54.52,-274.6 49.72,-265.79"/>
</g>
<!-- n0&#45;&#45;n5 -->
<g id="edge149" class="edge">
<title>n0&#45;&#45;n5</title>
<path fill="none" stroke="black" d="M98.17,-307.44C152.31,-292.02 290.24,-252.71 344.04,-237.37"/>
</g>
<!-- n0&#45;&#45;n4 -->
<g id="edge150" class="edge">
<title>n0&#45;&#45;n4</title>
<path fill="none" stroke="black" d="M98.76,-315.12C142.79,-317.68 238.87,-323.26 282.83,-325.82"/>
</g>
<!-- n0&#45;&#45;n3 -->
<g id="edge151" class="edge">
<title>n0&#45;&#45;n3</title>
<path fill="none" stroke="black" d="M97.45,-321.11C125.08,-330.49 172.71,-346.64 200.38,-356.03"/>
</g>
<!-- n0&#45;&#45;n2 -->
<g id="edge152" class="edge">
<title>n0&#45;&#45;n2</title>
<path fill="none" stroke="black" d="M92.63,-298.36C124.27,-269.18 192.53,-206.24 224.2,-177.02"/>
</g>
<!-- n0&#45;&#45;n1 -->
<g id="edge153" class="edge">
<title>n0&#45;&#45;n1</title>
<path fill="none" stroke="black" d="M92.35,-297.38C135.42,-254.4 251.09,-139 293.79,-96.4"/>
</g>
</g>
</svg>
