<?xml version="1.0" standalone="yes"?>
<!-- SVG graphic -->
<svg xmlns='http://www.w3.org/2000/svg' xmlns:xlink='http://www.w3.org/1999/xlink'
 version="1.1">
<rect x="0" y="-1.52588e-05" width="6" height="200" stroke="black" stroke-width="1" fill="blue" opacity="1" tooltip="enable"><title>(0,21050)</title></rect><rect x="6" y="93.6247" width="6" height="106.375" stroke="black" stroke-width="1" fill="blue" opacity="1" tooltip="enable"><title>(0.0386216,11196)</title></rect><rect x="12" y="114.508" width="6" height="85.4917" stroke="black" stroke-width="1" fill="blue" opacity="1" tooltip="enable"><title>(0.0772432,8998)</title></rect><rect x="18" y="130.033" width="6" height="69.9668" stroke="black" stroke-width="1" fill="blue" opacity="1" tooltip="enable"><title>(0.115865,7364)</title></rect><rect x="24" y="140.371" width="6" height="59.6295" stroke="black" stroke-width="1" fill="blue" opacity="1" tooltip="enable"><title>(0.154486,6276)</title></rect><rect x="30" y="151.639" width="6" height="48.361" stroke="black" stroke-width="1" fill="blue" opacity="1" tooltip="enable"><title>(0.193108,5090)</title></rect><rect x="36" y="157.948" width="6" height="42.0523" stroke="black" stroke-width="1" fill="blue" opacity="1" tooltip="enable"><title>(0.231729,4426)</title></rect><rect x="42" y="164.988" width="6" height="35.0119" stroke="black" stroke-width="1" fill="blue" opacity="1" tooltip="enable"><title>(0.270351,3685)</title></rect><rect x="48" y="170.261" width="6" height="29.7387" stroke="black" stroke-width="1" fill="blue" opacity="1" tooltip="enable"><title>(0.308973,3130)</title></rect><rect x="54" y="173.929" width="6" height="26.0713" stroke="black" stroke-width="1" fill="blue" opacity="1" tooltip="enable"><title>(0.347594,2744)</title></rect><rect x="60" y="178.784" width="6" height="21.2162" stroke="black" stroke-width="1" fill="blue" opacity="1" tooltip="enable"><title>(0.386216,2233)</title></rect><rect x="66" y="181.045" width="6" height="18.9549" stroke="black" stroke-width="1" fill="blue" opacity="1" tooltip="enable"><title>(0.424837,1995)</title></rect><rect x="72" y="183.648" width="6" height="16.3515" stroke="black" stroke-width="1" fill="blue" opacity="1" tooltip="enable"><title>(0.463459,1721)</title></rect><rect x="78" y="185.929" width="6" height="14.0713" stroke="black" stroke-width="1" fill="blue" opacity="1" tooltip="enable"><title>(0.502081,1481)</title></rect><rect x="84" y="187.905" width="6" height="12.095" stroke="black" stroke-width="1" fill="blue" opacity="1" tooltip="enable"><title>(0.540702,1273)</title></rect><rect x="90" y="189.102" width="6" height="10.8979" stroke="black" stroke-width="1" fill="blue" opacity="1" tooltip="enable"><title>(0.579324,1147)</title></rect><rect x="96" y="190.746" width="6" height="9.25416" stroke="black" stroke-width="1" fill="blue" opacity="1" tooltip="enable"><title>(0.617945,974)</title></rect><rect x="102" y="191.791" width="6" height="8.20903" stroke="black" stroke-width="1" fill="blue" opacity="1" tooltip="enable"><title>(0.656567,864)</title></rect><rect x="108" y="193.568" width="6" height="6.4323" stroke="black" stroke-width="1" fill="blue" opacity="1" tooltip="enable"><title>(0.695189,677)</title></rect><rect x="114" y="193.834" width="6" height="6.16627" stroke="black" stroke-width="1" fill="blue" opacity="1" tooltip="enable"><title>(0.73381,649)</title></rect><rect x="120" y="194.328" width="6" height="5.67221" stroke="black" stroke-width="1" fill="blue" opacity="1" tooltip="enable"><title>(0.772432,597)</title></rect><rect x="126" y="194.831" width="6" height="5.16865" stroke="black" stroke-width="1" fill="blue" opacity="1" tooltip="enable"><title>(0.811053,544)</title></rect><rect x="132" y="195.354" width="6" height="4.64608" stroke="black" stroke-width="1" fill="blue" opacity="1" tooltip="enable"><title>(0.849675,489)</title></rect><rect x="138" y="196.029" width="6" height="3.9715" stroke="black" stroke-width="1" fill="blue" opacity="1" tooltip="enable"><title>(0.888296,418)</title></rect><rect x="144" y="196.295" width="6" height="3.70546" stroke="black" stroke-width="1" fill="blue" opacity="1" tooltip="enable"><title>(0.926918,390)</title></rect><rect x="150" y="196.561" width="6" height="3.43943" stroke="black" stroke-width="1" fill="blue" opacity="1" tooltip="enable"><title>(0.96554,362)</title></rect><rect x="156" y="196.732" width="6" height="3.26841" stroke="black" stroke-width="1" fill="blue" opacity="1" tooltip="enable"><title>(1.00416,344)</title></rect><rect x="162" y="197.15" width="6" height="2.85036" stroke="black" stroke-width="1" fill="blue" opacity="1" tooltip="enable"><title>(1.04278,300)</title></rect><rect x="168" y="197.853" width="6" height="2.14727" stroke="black" stroke-width="1" fill="blue" opacity="1" tooltip="enable"><title>(1.0814,226)</title></rect><rect x="174" y="197.843" width="6" height="2.15677" stroke="black" stroke-width="1" fill="blue" opacity="1" tooltip="enable"><title>(1.12003,227)</title></rect><rect x="180" y="197.881" width="6" height="2.11876" stroke="black" stroke-width="1" fill="blue" opacity="1" tooltip="enable"><title>(1.15865,223)</title></rect><rect x="186" y="198.185" width="6" height="1.81473" stroke="black" stroke-width="1" fill="blue" opacity="1" tooltip="enable"><title>(1.19727,191)</title></rect><rect x="192" y="198.271" width="6" height="1.72922" stroke="black" stroke-width="1" fill="blue" opacity="1" tooltip="enable"><title>(1.23589,182)</title></rect><rect x="198" y="198.613" width="6" height="1.38717" stroke="black" stroke-width="1" fill="blue" opacity="1" tooltip="enable"><title>(1.27451,146)</title></rect><rect x="204" y="198.622" width="6" height="1.37767" stroke="black" stroke-width="1" fill="blue" opacity="1" tooltip="enable"><title>(1.31313,145)</title></rect><rect x="210" y="198.85" width="6" height="1.14964" stroke="black" stroke-width="1" fill="blue" opacity="1" tooltip="enable"><title>(1.35176,121)</title></rect><rect x="216" y="198.974" width="6" height="1.02613" stroke="black" stroke-width="1" fill="blue" opacity="1" tooltip="enable"><title>(1.39038,108)</title></rect><rect x="222" y="198.936" width="6" height="1.06413" stroke="black" stroke-width="1" fill="blue" opacity="1" tooltip="enable"><title>(1.429,112)</title></rect><rect x="228" y="198.964" width="6" height="1.03563" stroke="black" stroke-width="1" fill="blue" opacity="1" tooltip="enable"><title>(1.46762,109)</title></rect><rect x="234" y="199.164" width="6" height="0.836105" stroke="black" stroke-width="1" fill="blue" opacity="1" tooltip="enable"><title>(1.50624,88)</title></rect><rect x="240" y="199.192" width="6" height="0.807601" stroke="black" stroke-width="1" fill="blue" opacity="1" tooltip="enable"><title>(1.54486,85)</title></rect><rect x="246" y="199.221" width="6" height="0.779097" stroke="black" stroke-width="1" fill="blue" opacity="1" tooltip="enable"><title>(1.58348,82)</title></rect><rect x="252" y="199.401" width="6" height="0.598575" stroke="black" stroke-width="1" fill="blue" opacity="1" tooltip="enable"><title>(1.62211,63)</title></rect><rect x="258" y="199.544" width="6" height="0.456057" stroke="black" stroke-width="1" fill="blue" opacity="1" tooltip="enable"><title>(1.66073,48)</title></rect><rect x="264" y="199.525" width="6" height="0.475059" stroke="black" stroke-width="1" fill="blue" opacity="1" tooltip="enable"><title>(1.69935,50)</title></rect><rect x="270" y="199.563" width="6" height="0.437055" stroke="black" stroke-width="1" fill="blue" opacity="1" tooltip="enable"><title>(1.73797,46)</title></rect><rect x="276" y="199.515" width="6" height="0.484561" stroke="black" stroke-width="1" fill="blue" opacity="1" tooltip="enable"><title>(1.77659,51)</title></rect><rect x="282" y="199.534" width="6" height="0.465558" stroke="black" stroke-width="1" fill="blue" opacity="1" tooltip="enable"><title>(1.81521,49)</title></rect><rect x="288" y="199.591" width="6" height="0.408551" stroke="black" stroke-width="1" fill="blue" opacity="1" tooltip="enable"><title>(1.85384,43)</title></rect><rect x="294" y="199.696" width="6" height="0.304038" stroke="black" stroke-width="1" fill="blue" opacity="1" tooltip="enable"><title>(1.89246,32)</title></rect><rect x="300" y="199.677" width="6" height="0.32304" stroke="black" stroke-width="1" fill="blue" opacity="1" tooltip="enable"><title>(1.93108,34)</title></rect><rect x="306" y="199.791" width="6" height="0.209026" stroke="black" stroke-width="1" fill="blue" opacity="1" tooltip="enable"><title>(1.9697,22)</title></rect><rect x="312" y="199.705" width="6" height="0.294537" stroke="black" stroke-width="1" fill="blue" opacity="1" tooltip="enable"><title>(2.00832,31)</title></rect><rect x="318" y="199.715" width="6" height="0.285036" stroke="black" stroke-width="1" fill="blue" opacity="1" tooltip="enable"><title>(2.04694,30)</title></rect><rect x="324" y="199.867" width="6" height="0.133017" stroke="black" stroke-width="1" fill="blue" opacity="1" tooltip="enable"><title>(2.08557,14)</title></rect><rect x="330" y="199.781" width="6" height="0.218527" stroke="black" stroke-width="1" fill="blue" opacity="1" tooltip="enable"><title>(2.12419,23)</title></rect><rect x="336" y="199.81" width="6" height="0.190024" stroke="black" stroke-width="1" fill="blue" opacity="1" tooltip="enable"><title>(2.16281,20)</title></rect><rect x="342" y="199.819" width="6" height="0.180523" stroke="black" stroke-width="1" fill="blue" opacity="1" tooltip="enable"><title>(2.20143,19)</title></rect><rect x="348" y="199.886" width="6" height="0.114014" stroke="black" stroke-width="1" fill="blue" opacity="1" tooltip="enable"><title>(2.24005,12)</title></rect><rect x="354" y="199.857" width="6" height="0.142518" stroke="black" stroke-width="1" fill="blue" opacity="1" tooltip="enable"><title>(2.27867,15)</title></rect><rect x="360" y="199.848" width="6" height="0.152019" stroke="black" stroke-width="1" fill="blue" opacity="1" tooltip="enable"><title>(2.3173,16)</title></rect><rect x="366" y="199.857" width="6" height="0.142518" stroke="black" stroke-width="1" fill="blue" opacity="1" tooltip="enable"><title>(2.35592,15)</title></rect><rect x="372" y="199.924" width="6" height="0.0760095" stroke="black" stroke-width="1" fill="blue" opacity="1" tooltip="enable"><title>(2.39454,8)</title></rect><rect x="378" y="199.867" width="6" height="0.133017" stroke="black" stroke-width="1" fill="blue" opacity="1" tooltip="enable"><title>(2.43316,14)</title></rect><rect x="384" y="199.895" width="6" height="0.104513" stroke="black" stroke-width="1" fill="blue" opacity="1" tooltip="enable"><title>(2.47178,11)</title></rect><rect x="390" y="199.914" width="6" height="0.0855107" stroke="black" stroke-width="1" fill="blue" opacity="1" tooltip="enable"><title>(2.5104,9)</title></rect><rect x="396" y="199.876" width="6" height="0.123515" stroke="black" stroke-width="1" fill="blue" opacity="1" tooltip="enable"><title>(2.54902,13)</title></rect><rect x="402" y="199.914" width="6" height="0.0855107" stroke="black" stroke-width="1" fill="blue" opacity="1" tooltip="enable"><title>(2.58765,9)</title></rect><rect x="408" y="199.943" width="6" height="0.0570071" stroke="black" stroke-width="1" fill="blue" opacity="1" tooltip="enable"><title>(2.62627,6)</title></rect><rect x="414" y="199.943" width="6" height="0.0570071" stroke="black" stroke-width="1" fill="blue" opacity="1" tooltip="enable"><title>(2.66489,6)</title></rect><rect x="420" y="199.962" width="6" height="0.0380048" stroke="black" stroke-width="1" fill="blue" opacity="1" tooltip="enable"><title>(2.70351,4)</title></rect><rect x="426" y="199.952" width="6" height="0.0475059" stroke="black" stroke-width="1" fill="blue" opacity="1" tooltip="enable"><title>(2.74213,5)</title></rect><rect x="432" y="199.943" width="6" height="0.0570071" stroke="black" stroke-width="1" fill="blue" opacity="1" tooltip="enable"><title>(2.78075,6)</title></rect><rect x="438" y="199.943" width="6" height="0.0570071" stroke="black" stroke-width="1" fill="blue" opacity="1" tooltip="enable"><title>(2.81938,6)</title></rect><rect x="444" y="199.981" width="6" height="0.0190024" stroke="black" stroke-width="1" fill="blue" opacity="1" tooltip="enable"><title>(2.858,2)</title></rect><rect x="450" y="199.962" width="6" height="0.0380048" stroke="black" stroke-width="1" fill="blue" opacity="1" tooltip="enable"><title>(2.89662,4)</title></rect><rect x="456" y="199.981" width="6" height="0.0190024" stroke="black" stroke-width="1" fill="blue" opacity="1" tooltip="enable"><title>(2.93524,2)</title></rect><rect x="462" y="199.971" width="6" height="0.0285036" stroke="black" stroke-width="1" fill="blue" opacity="1" tooltip="enable"><title>(2.97386,3)</title></rect><rect x="468" y="199.981" width="6" height="0.0190024" stroke="black" stroke-width="1" fill="blue" opacity="1" tooltip="enable"><title>(3.01248,2)</title></rect><rect x="474" y="199.981" width="6" height="0.0190024" stroke="black" stroke-width="1" fill="blue" opacity="1" tooltip="enable"><title>(3.05111,2)</title></rect><rect x="480" y="199.99" width="6" height="0.00950119" stroke="black" stroke-width="1" fill="blue" opacity="1" tooltip="enable"><title>(3.08973,1)</title></rect><rect x="486" y="199.99" width="6" height="0.00950119" stroke="black" stroke-width="1" fill="blue" opacity="1" tooltip="enable"><title>(3.12835,1)</title></rect><rect x="492" y="199.971" width="6" height="0.0285036" stroke="black" stroke-width="1" fill="blue" opacity="1" tooltip="enable"><title>(3.16697,3)</title></rect><rect x="498" y="199.99" width="6" height="0.00950119" stroke="black" stroke-width="1" fill="blue" opacity="1" tooltip="enable"><title>(3.20559,1)</title></rect><rect x="504" y="199.981" width="6" height="0.0190024" stroke="black" stroke-width="1" fill="blue" opacity="1" tooltip="enable"><title>(3.24421,2)</title></rect><rect x="510" y="199.99" width="6" height="0.00950119" stroke="black" stroke-width="1" fill="blue" opacity="1" tooltip="enable"><title>(3.28283,1)</title></rect><rect x="516" y="200" width="6" height="0" stroke="black" stroke-width="1" fill="blue" opacity="1" tooltip="enable"><title>(3.32146,0)</title></rect><rect x="522" y="199.99" width="6" height="0.00950119" stroke="black" stroke-width="1" fill="blue" opacity="1" tooltip="enable"><title>(3.36008,1)</title></rect><rect x="528" y="200" width="6" height="0" stroke="black" stroke-width="1" fill="blue" opacity="1" tooltip="enable"><title>(3.3987,0)</title></rect><rect x="534" y="200" width="6" height="0" stroke="black" stroke-width="1" fill="blue" opacity="1" tooltip="enable"><title>(3.43732,0)</title></rect><rect x="540" y="200" width="6" height="0" stroke="black" stroke-width="1" fill="blue" opacity="1" tooltip="enable"><title>(3.47594,0)</title></rect><rect x="546" y="200" width="6" height="0" stroke="black" stroke-width="1" fill="blue" opacity="1" tooltip="enable"><title>(3.51456,0)</title></rect><rect x="552" y="200" width="6" height="0" stroke="black" stroke-width="1" fill="blue" opacity="1" tooltip="enable"><title>(3.55319,0)</title></rect><rect x="558" y="200" width="6" height="0" stroke="black" stroke-width="1" fill="blue" opacity="1" tooltip="enable"><title>(3.59181,0)</title></rect><rect x="564" y="200" width="6" height="0" stroke="black" stroke-width="1" fill="blue" opacity="1" tooltip="enable"><title>(3.63043,0)</title></rect><rect x="570" y="200" width="6" height="0" stroke="black" stroke-width="1" fill="blue" opacity="1" tooltip="enable"><title>(3.66905,0)</title></rect><rect x="576" y="200" width="6" height="0" stroke="black" stroke-width="1" fill="blue" opacity="1" tooltip="enable"><title>(3.70767,0)</title></rect><rect x="582" y="200" width="6" height="0" stroke="black" stroke-width="1" fill="blue" opacity="1" tooltip="enable"><title>(3.74629,0)</title></rect><rect x="588" y="200" width="6" height="0" stroke="black" stroke-width="1" fill="blue" opacity="1" tooltip="enable"><title>(3.78492,0)</title></rect><rect x="594" y="200" width="6" height="0" stroke="black" stroke-width="1" fill="blue" opacity="1" tooltip="enable"><title>(3.82354,0)</title></rect><text x="30" y="240" font-size="20" fill="black">0</text>
<text x="600" y="240" font-size="20" fill="black">3.86216</text>
<polyline points="0,220,600,220" stroke="black" stroke-width="1" fill="none" opacity="1"/>
<text x="720" y="20" font-size="20" fill="black">21050</text>
<text x="720" y="200" font-size="20" fill="black">0</text>
<polyline points="660,0,660,200" stroke="black" stroke-width="1" fill="none" opacity="1"/>
</svg>