<?xml version="1.0" standalone="yes"?>
<!-- SVG graphic -->
<svg xmlns='http://www.w3.org/2000/svg' xmlns:xlink='http://www.w3.org/1999/xlink'
 version="1.1">
<rect x="0" y="0" width="6" height="200" stroke="black" stroke-width="1" fill="blue" opacity="1" tooltip="enable"><title>(0,21040)</title></rect><rect x="6" y="92.2243" width="6" height="107.776" stroke="black" stroke-width="1" fill="blue" opacity="1" tooltip="enable"><title>(0.0386867,11338)</title></rect><rect x="12" y="114.924" width="6" height="85.076" stroke="black" stroke-width="1" fill="blue" opacity="1" tooltip="enable"><title>(0.0773733,8950)</title></rect><rect x="18" y="129.838" width="6" height="70.1616" stroke="black" stroke-width="1" fill="blue" opacity="1" tooltip="enable"><title>(0.11606,7381)</title></rect><rect x="24" y="140.618" width="6" height="59.3821" stroke="black" stroke-width="1" fill="blue" opacity="1" tooltip="enable"><title>(0.154747,6247)</title></rect><rect x="30" y="151.15" width="6" height="48.8498" stroke="black" stroke-width="1" fill="blue" opacity="1" tooltip="enable"><title>(0.193433,5139)</title></rect><rect x="36" y="158.337" width="6" height="41.6635" stroke="black" stroke-width="1" fill="blue" opacity="1" tooltip="enable"><title>(0.23212,4383)</title></rect><rect x="42" y="165.352" width="6" height="34.6483" stroke="black" stroke-width="1" fill="blue" opacity="1" tooltip="enable"><title>(0.270807,3645)</title></rect><rect x="48" y="169.8" width="6" height="30.1996" stroke="black" stroke-width="1" fill="blue" opacity="1" tooltip="enable"><title>(0.309493,3177)</title></rect><rect x="54" y="173.688" width="6" height="26.3118" stroke="black" stroke-width="1" fill="blue" opacity="1" tooltip="enable"><title>(0.34818,2768)</title></rect><rect x="60" y="178.812" width="6" height="21.1882" stroke="black" stroke-width="1" fill="blue" opacity="1" tooltip="enable"><title>(0.386867,2229)</title></rect><rect x="66" y="181.112" width="6" height="18.8878" stroke="black" stroke-width="1" fill="blue" opacity="1" tooltip="enable"><title>(0.425553,1987)</title></rect><rect x="72" y="183.365" width="6" height="16.635" stroke="black" stroke-width="1" fill="blue" opacity="1" tooltip="enable"><title>(0.46424,1750)</title></rect><rect x="78" y="186.359" width="6" height="13.6407" stroke="black" stroke-width="1" fill="blue" opacity="1" tooltip="enable"><title>(0.502927,1435)</title></rect><rect x="84" y="187.69" width="6" height="12.3099" stroke="black" stroke-width="1" fill="blue" opacity="1" tooltip="enable"><title>(0.541613,1295)</title></rect><rect x="90" y="189.202" width="6" height="10.7985" stroke="black" stroke-width="1" fill="blue" opacity="1" tooltip="enable"><title>(0.5803,1136)</title></rect><rect x="96" y="190.77" width="6" height="9.23004" stroke="black" stroke-width="1" fill="blue" opacity="1" tooltip="enable"><title>(0.618987,971)</title></rect><rect x="102" y="191.844" width="6" height="8.15589" stroke="black" stroke-width="1" fill="blue" opacity="1" tooltip="enable"><title>(0.657673,858)</title></rect><rect x="108" y="193.394" width="6" height="6.60646" stroke="black" stroke-width="1" fill="blue" opacity="1" tooltip="enable"><title>(0.69636,695)</title></rect><rect x="114" y="193.916" width="6" height="6.08365" stroke="black" stroke-width="1" fill="blue" opacity="1" tooltip="enable"><title>(0.735047,640)</title></rect><rect x="120" y="194.363" width="6" height="5.63688" stroke="black" stroke-width="1" fill="blue" opacity="1" tooltip="enable"><title>(0.773733,593)</title></rect><rect x="126" y="194.743" width="6" height="5.25665" stroke="black" stroke-width="1" fill="blue" opacity="1" tooltip="enable"><title>(0.81242,553)</title></rect><rect x="132" y="195.285" width="6" height="4.71483" stroke="black" stroke-width="1" fill="blue" opacity="1" tooltip="enable"><title>(0.851107,496)</title></rect><rect x="138" y="195.96" width="6" height="4.03992" stroke="black" stroke-width="1" fill="blue" opacity="1" tooltip="enable"><title>(0.889793,425)</title></rect><rect x="144" y="196.217" width="6" height="3.78327" stroke="black" stroke-width="1" fill="blue" opacity="1" tooltip="enable"><title>(0.92848,398)</title></rect><rect x="150" y="196.568" width="6" height="3.43156" stroke="black" stroke-width="1" fill="blue" opacity="1" tooltip="enable"><title>(0.967167,361)</title></rect><rect x="156" y="196.778" width="6" height="3.22243" stroke="black" stroke-width="1" fill="blue" opacity="1" tooltip="enable"><title>(1.00585,339)</title></rect><rect x="162" y="197.177" width="6" height="2.82319" stroke="black" stroke-width="1" fill="blue" opacity="1" tooltip="enable"><title>(1.04454,297)</title></rect><rect x="168" y="197.861" width="6" height="2.13878" stroke="black" stroke-width="1" fill="blue" opacity="1" tooltip="enable"><title>(1.08323,225)</title></rect><rect x="174" y="197.747" width="6" height="2.25285" stroke="black" stroke-width="1" fill="blue" opacity="1" tooltip="enable"><title>(1.12191,237)</title></rect><rect x="180" y="197.947" width="6" height="2.05323" stroke="black" stroke-width="1" fill="blue" opacity="1" tooltip="enable"><title>(1.1606,216)</title></rect><rect x="186" y="198.175" width="6" height="1.82509" stroke="black" stroke-width="1" fill="blue" opacity="1" tooltip="enable"><title>(1.19929,192)</title></rect><rect x="192" y="198.337" width="6" height="1.6635" stroke="black" stroke-width="1" fill="blue" opacity="1" tooltip="enable"><title>(1.23797,175)</title></rect><rect x="198" y="198.508" width="6" height="1.4924" stroke="black" stroke-width="1" fill="blue" opacity="1" tooltip="enable"><title>(1.27666,157)</title></rect><rect x="204" y="198.593" width="6" height="1.40684" stroke="black" stroke-width="1" fill="blue" opacity="1" tooltip="enable"><title>(1.31535,148)</title></rect><rect x="210" y="198.878" width="6" height="1.12167" stroke="black" stroke-width="1" fill="blue" opacity="1" tooltip="enable"><title>(1.35403,118)</title></rect><rect x="216" y="198.964" width="6" height="1.03612" stroke="black" stroke-width="1" fill="blue" opacity="1" tooltip="enable"><title>(1.39272,109)</title></rect><rect x="222" y="198.85" width="6" height="1.15019" stroke="black" stroke-width="1" fill="blue" opacity="1" tooltip="enable"><title>(1.43141,121)</title></rect><rect x="228" y="198.945" width="6" height="1.05513" stroke="black" stroke-width="1" fill="blue" opacity="1" tooltip="enable"><title>(1.47009,111)</title></rect><rect x="234" y="199.116" width="6" height="0.88403" stroke="black" stroke-width="1" fill="blue" opacity="1" tooltip="enable"><title>(1.50878,93)</title></rect><rect x="240" y="199.249" width="6" height="0.750951" stroke="black" stroke-width="1" fill="blue" opacity="1" tooltip="enable"><title>(1.54747,79)</title></rect><rect x="246" y="199.278" width="6" height="0.722433" stroke="black" stroke-width="1" fill="blue" opacity="1" tooltip="enable"><title>(1.58615,76)</title></rect><rect x="252" y="199.373" width="6" height="0.627376" stroke="black" stroke-width="1" fill="blue" opacity="1" tooltip="enable"><title>(1.62484,66)</title></rect><rect x="258" y="199.553" width="6" height="0.446768" stroke="black" stroke-width="1" fill="blue" opacity="1" tooltip="enable"><title>(1.66353,47)</title></rect><rect x="264" y="199.534" width="6" height="0.465779" stroke="black" stroke-width="1" fill="blue" opacity="1" tooltip="enable"><title>(1.70221,49)</title></rect><rect x="270" y="199.449" width="6" height="0.551331" stroke="black" stroke-width="1" fill="blue" opacity="1" tooltip="enable"><title>(1.7409,58)</title></rect><rect x="276" y="199.639" width="6" height="0.361217" stroke="black" stroke-width="1" fill="blue" opacity="1" tooltip="enable"><title>(1.77959,38)</title></rect><rect x="282" y="199.515" width="6" height="0.484791" stroke="black" stroke-width="1" fill="blue" opacity="1" tooltip="enable"><title>(1.81827,51)</title></rect><rect x="288" y="199.601" width="6" height="0.39924" stroke="black" stroke-width="1" fill="blue" opacity="1" tooltip="enable"><title>(1.85696,42)</title></rect><rect x="294" y="199.677" width="6" height="0.323194" stroke="black" stroke-width="1" fill="blue" opacity="1" tooltip="enable"><title>(1.89565,34)</title></rect><rect x="300" y="199.696" width="6" height="0.304182" stroke="black" stroke-width="1" fill="blue" opacity="1" tooltip="enable"><title>(1.93433,32)</title></rect><rect x="306" y="199.791" width="6" height="0.209125" stroke="black" stroke-width="1" fill="blue" opacity="1" tooltip="enable"><title>(1.97302,22)</title></rect><rect x="312" y="199.658" width="6" height="0.342205" stroke="black" stroke-width="1" fill="blue" opacity="1" tooltip="enable"><title>(2.01171,36)</title></rect><rect x="318" y="199.696" width="6" height="0.304182" stroke="black" stroke-width="1" fill="blue" opacity="1" tooltip="enable"><title>(2.05039,32)</title></rect><rect x="324" y="199.876" width="6" height="0.123574" stroke="black" stroke-width="1" fill="blue" opacity="1" tooltip="enable"><title>(2.08908,13)</title></rect><rect x="330" y="199.819" width="6" height="0.180608" stroke="black" stroke-width="1" fill="blue" opacity="1" tooltip="enable"><title>(2.12777,19)</title></rect><rect x="336" y="199.762" width="6" height="0.237643" stroke="black" stroke-width="1" fill="blue" opacity="1" tooltip="enable"><title>(2.16645,25)</title></rect><rect x="342" y="199.838" width="6" height="0.161597" stroke="black" stroke-width="1" fill="blue" opacity="1" tooltip="enable"><title>(2.20514,17)</title></rect><rect x="348" y="199.867" width="6" height="0.13308" stroke="black" stroke-width="1" fill="blue" opacity="1" tooltip="enable"><title>(2.24383,14)</title></rect><rect x="354" y="199.857" width="6" height="0.142586" stroke="black" stroke-width="1" fill="blue" opacity="1" tooltip="enable"><title>(2.28251,15)</title></rect><rect x="360" y="199.876" width="6" height="0.123574" stroke="black" stroke-width="1" fill="blue" opacity="1" tooltip="enable"><title>(2.3212,13)</title></rect><rect x="366" y="199.857" width="6" height="0.142586" stroke="black" stroke-width="1" fill="blue" opacity="1" tooltip="enable"><title>(2.35989,15)</title></rect><rect x="372" y="199.914" width="6" height="0.0855513" stroke="black" stroke-width="1" fill="blue" opacity="1" tooltip="enable"><title>(2.39857,9)</title></rect><rect x="378" y="199.819" width="6" height="0.180608" stroke="black" stroke-width="1" fill="blue" opacity="1" tooltip="enable"><title>(2.43726,19)</title></rect><rect x="384" y="199.905" width="6" height="0.095057" stroke="black" stroke-width="1" fill="blue" opacity="1" tooltip="enable"><title>(2.47595,10)</title></rect><rect x="390" y="199.905" width="6" height="0.095057" stroke="black" stroke-width="1" fill="blue" opacity="1" tooltip="enable"><title>(2.51463,10)</title></rect><rect x="396" y="199.895" width="6" height="0.104563" stroke="black" stroke-width="1" fill="blue" opacity="1" tooltip="enable"><title>(2.55332,11)</title></rect><rect x="402" y="199.905" width="6" height="0.095057" stroke="black" stroke-width="1" fill="blue" opacity="1" tooltip="enable"><title>(2.59201,10)</title></rect><rect x="408" y="199.943" width="6" height="0.0570342" stroke="black" stroke-width="1" fill="blue" opacity="1" tooltip="enable"><title>(2.63069,6)</title></rect><rect x="414" y="199.943" width="6" height="0.0570342" stroke="black" stroke-width="1" fill="blue" opacity="1" tooltip="enable"><title>(2.66938,6)</title></rect><rect x="420" y="199.971" width="6" height="0.0285171" stroke="black" stroke-width="1" fill="blue" opacity="1" tooltip="enable"><title>(2.70807,3)</title></rect><rect x="426" y="199.933" width="6" height="0.0665399" stroke="black" stroke-width="1" fill="blue" opacity="1" tooltip="enable"><title>(2.74675,7)</title></rect><rect x="432" y="199.914" width="6" height="0.0855513" stroke="black" stroke-width="1" fill="blue" opacity="1" tooltip="enable"><title>(2.78544,9)</title></rect><rect x="438" y="199.971" width="6" height="0.0285171" stroke="black" stroke-width="1" fill="blue" opacity="1" tooltip="enable"><title>(2.82413,3)</title></rect><rect x="444" y="199.981" width="6" height="0.0190114" stroke="black" stroke-width="1" fill="blue" opacity="1" tooltip="enable"><title>(2.86281,2)</title></rect><rect x="450" y="199.952" width="6" height="0.0475285" stroke="black" stroke-width="1" fill="blue" opacity="1" tooltip="enable"><title>(2.9015,5)</title></rect><rect x="456" y="199.99" width="6" height="0.0095057" stroke="black" stroke-width="1" fill="blue" opacity="1" tooltip="enable"><title>(2.94019,1)</title></rect><rect x="462" y="199.952" width="6" height="0.0475285" stroke="black" stroke-width="1" fill="blue" opacity="1" tooltip="enable"><title>(2.97887,5)</title></rect><rect x="468" y="199.99" width="6" height="0.0095057" stroke="black" stroke-width="1" fill="blue" opacity="1" tooltip="enable"><title>(3.01756,1)</title></rect><rect x="474" y="199.981" width="6" height="0.0190114" stroke="black" stroke-width="1" fill="blue" opacity="1" tooltip="enable"><title>(3.05625,2)</title></rect><rect x="480" y="199.971" width="6" height="0.0285171" stroke="black" stroke-width="1" fill="blue" opacity="1" tooltip="enable"><title>(3.09493,3)</title></rect><rect x="486" y="200" width="6" height="0" stroke="black" stroke-width="1" fill="blue" opacity="1" tooltip="enable"><title>(3.13362,0)</title></rect><rect x="492" y="199.971" width="6" height="0.0285171" stroke="black" stroke-width="1" fill="blue" opacity="1" tooltip="enable"><title>(3.17231,3)</title></rect><rect x="498" y="200" width="6" height="0" stroke="black" stroke-width="1" fill="blue" opacity="1" tooltip="enable"><title>(3.21099,0)</title></rect><rect x="504" y="199.99" width="6" height="0.0095057" stroke="black" stroke-width="1" fill="blue" opacity="1" tooltip="enable"><title>(3.24968,1)</title></rect><rect x="510" y="199.99" width="6" height="0.0095057" stroke="black" stroke-width="1" fill="blue" opacity="1" tooltip="enable"><title>(3.28837,1)</title></rect><rect x="516" y="200" width="6" height="0" stroke="black" stroke-width="1" fill="blue" opacity="1" tooltip="enable"><title>(3.32705,0)</title></rect><rect x="522" y="199.99" width="6" height="0.0095057" stroke="black" stroke-width="1" fill="blue" opacity="1" tooltip="enable"><title>(3.36574,1)</title></rect><rect x="528" y="200" width="6" height="0" stroke="black" stroke-width="1" fill="blue" opacity="1" tooltip="enable"><title>(3.40443,0)</title></rect><rect x="534" y="200" width="6" height="0" stroke="black" stroke-width="1" fill="blue" opacity="1" tooltip="enable"><title>(3.44311,0)</title></rect><rect x="540" y="200" width="6" height="0" stroke="black" stroke-width="1" fill="blue" opacity="1" tooltip="enable"><title>(3.4818,0)</title></rect><rect x="546" y="200" width="6" height="0" stroke="black" stroke-width="1" fill="blue" opacity="1" tooltip="enable"><title>(3.52049,0)</title></rect><rect x="552" y="200" width="6" height="0" stroke="black" stroke-width="1" fill="blue" opacity="1" tooltip="enable"><title>(3.55917,0)</title></rect><rect x="558" y="199.99" width="6" height="0.0095057" stroke="black" stroke-width="1" fill="blue" opacity="1" tooltip="enable"><title>(3.59786,1)</title></rect><rect x="564" y="200" width="6" height="0" stroke="black" stroke-width="1" fill="blue" opacity="1" tooltip="enable"><title>(3.63655,0)</title></rect><rect x="570" y="199.99" width="6" height="0.0095057" stroke="black" stroke-width="1" fill="blue" opacity="1" tooltip="enable"><title>(3.67523,1)</title></rect><rect x="576" y="200" width="6" height="0" stroke="black" stroke-width="1" fill="blue" opacity="1" tooltip="enable"><title>(3.71392,0)</title></rect><rect x="582" y="200" width="6" height="0" stroke="black" stroke-width="1" fill="blue" opacity="1" tooltip="enable"><title>(3.75261,0)</title></rect><rect x="588" y="200" width="6" height="0" stroke="black" stroke-width="1" fill="blue" opacity="1" tooltip="enable"><title>(3.79129,0)</title></rect><rect x="594" y="200" width="6" height="0" stroke="black" stroke-width="1" fill="blue" opacity="1" tooltip="enable"><title>(3.82998,0)</title></rect><text x="30" y="240" font-size="20" fill="black">0</text>
<text x="600" y="240" font-size="20" fill="black">3.86867</text>
<polyline points="0,220,600,220" stroke="black" stroke-width="1" fill="none" opacity="1"/>
<text x="720" y="20" font-size="20" fill="black">21040</text>
<text x="720" y="200" font-size="20" fill="black">0</text>
<polyline points="660,0,660,200" stroke="black" stroke-width="1" fill="none" opacity="1"/>
</svg>